<svg width="120" height="120" viewBox="0 0 120 120" fill="none" xmlns="http://www.w3.org/2000/svg">
<path d="M7.5 45.5C7.5 32.1988 7.5 25.5481 10.0886 20.4677C12.3656 15.9989 15.9989 12.3656 20.4677 10.0886C25.5481 7.5 32.1988 7.5 45.5 7.5H74.5C87.8012 7.5 94.4519 7.5 99.5323 10.0886C104.001 12.3656 107.634 15.9989 109.911 20.4677C112.5 25.5481 112.5 32.1988 112.5 45.5V74.5C112.5 87.8012 112.5 94.4519 109.911 99.5323C107.634 104.001 104.001 107.634 99.5323 109.911C94.4519 112.5 87.8013 112.5 74.5 112.5H45.5C32.1988 112.5 25.5481 112.5 20.4677 109.911C15.9989 107.634 12.3656 104.001 10.0886 99.5323C7.5 94.4519 7.5 87.8013 7.5 74.5V45.5Z" fill="#330000"/>
<path d="M58.3815 73.486H42.1105L38.7999 84.0336C38.708 84.4255 38.3472 84.703 37.9546 84.6838H29.7135C29.2435 84.6838 29.0792 84.4189 29.2204 83.8891L43.3078 42.2768C43.4488 41.8434 43.5897 41.3497 43.7306 40.7957C43.9148 39.8319 44.0092 38.8522 44.0123 37.87C43.972 37.5798 44.227 37.3235 44.5054 37.3642H55.7048C56.0329 37.3642 56.2208 37.4846 56.2683 37.7255L72.2578 83.9613C72.3986 84.4433 72.2577 84.6841 71.8351 84.6838H62.6781C62.3569 84.7203 62.0503 84.5001 61.9738 84.1781L58.3815 73.486ZM44.6462 64.3833H55.7753C53.9468 58.1352 51.8833 51.9691 50.2109 45.6723C48.4064 51.9797 46.4376 58.2618 44.6462 64.3833Z" fill="#FF9A00"/>
<path d="M81.7659 45.0218C81.0475 45.0514 80.3311 44.9252 79.6635 44.6513C78.9959 44.3774 78.3922 43.9621 77.8919 43.4325C77.3929 42.8799 77.0054 42.2317 76.7515 41.525C76.4976 40.8183 76.3824 40.0671 76.4125 39.3146C76.387 38.5695 76.5149 37.8273 76.788 37.1364C77.0611 36.4455 77.4732 35.8215 77.9974 35.3051C78.5166 34.794 79.1294 34.3935 79.8004 34.1269C80.4714 33.8603 81.1873 33.7328 81.9067 33.7519C83.5973 33.7519 84.9239 34.2696 85.8865 35.3051C86.3724 35.8432 86.75 36.4743 86.9978 37.1623C87.2456 37.8503 87.3586 38.5817 87.3304 39.3146C87.3598 40.07 87.241 40.8238 86.9808 41.5312C86.7207 42.2386 86.3246 42.8852 85.816 43.4325C85.2845 43.9698 84.6502 44.3885 83.9532 44.662C83.2562 44.9356 82.5114 45.0581 81.7659 45.0218ZM76.9056 83.9611V49.4286C76.9056 48.9952 77.0927 48.7784 77.4691 48.7784H86.133C86.5084 48.7784 86.6962 48.9952 86.6966 49.4286V83.9611C86.6966 84.4431 86.5087 84.6839 86.133 84.6835H77.5396C77.1171 84.6835 76.9057 84.4427 76.9056 83.9611Z" fill="#FF9A00"/>
</svg>
