<svg width="121" height="98" viewBox="0 0 121 98" fill="none" xmlns="http://www.w3.org/2000/svg">
<g clip-path="url(#clip0_989_1572)">
<path d="M97.5618 71.6533C92.8064 76.505 86.1545 79.2486 78.9491 79.2582C71.7389 79.2726 65.0822 76.5484 60.3267 71.7111C58.002 69.3526 56.2981 66.6476 55.2392 63.7548C54.2043 60.915 53.8096 57.8779 54.0744 54.8696C54.3295 51.9335 55.1959 49.0793 56.6254 46.4994C58.0164 43.9773 59.9272 41.7006 62.2857 39.7753C66.9064 36.0066 72.7882 33.9706 78.9491 33.961C85.11 33.9513 90.987 35.9777 95.6125 39.7272C97.9662 41.6477 99.877 43.9147 101.263 46.432C102.693 49.0119 103.564 51.8613 103.819 54.7974C104.084 57.8105 103.684 60.8428 102.649 63.6874C101.591 66.5754 99.8818 69.2852 97.5618 71.6533Z" fill="white"/>
<path d="M63.5757 55.1777C63.7923 51.2549 65.7176 47.7942 68.6151 45.3443C71.4597 42.9329 75.2911 41.4648 79.4641 41.4648C83.642 41.4697 87.4685 42.9377 90.3131 45.3443C93.2107 47.799 95.136 51.2549 95.3574 55.1777C95.5788 59.2112 93.9567 62.9607 91.1121 65.7379C88.2146 68.5633 84.0848 70.3394 79.4641 70.3394C74.8434 70.3394 70.7089 68.5633 67.8113 65.7379C64.9715 62.9607 63.3543 59.2112 63.5757 55.1777Z" fill="#005385"/>
<path d="M38.2629 63.1194C38.2918 64.65 38.7828 67.6342 39.5144 69.9686C41.0594 74.9022 43.6778 79.4699 47.3262 83.4938C51.0709 87.6283 55.6724 90.9495 60.9958 93.3031C66.5936 95.7819 72.6534 97.0478 78.9443 97.0334C85.2352 97.0238 91.295 95.7386 96.888 93.2406C102.207 90.858 106.808 87.5273 110.548 83.3831C114.192 79.34 116.805 74.7674 118.35 69.8339C119.12 67.3743 119.616 64.8377 119.818 62.2723C120.011 59.7694 119.929 57.2473 119.578 54.7588C118.884 49.8782 117.195 45.3009 114.596 41.1278C112.213 37.2965 109.152 33.9368 105.508 31.1067L105.513 31.1018L68.7499 2.8771C68.721 2.85303 68.6873 2.82415 68.6584 2.80009C66.2374 0.95181 62.1847 0.956624 59.5326 2.81453C56.8468 4.69169 56.5436 7.79621 58.9261 9.7552L58.9165 9.76001L74.2514 22.2359L27.5006 22.284H27.438C23.5778 22.2888 19.862 24.8254 19.1256 28.0262C18.3747 31.2896 20.9979 33.9946 25.017 34.0138L25.0121 34.0283L48.7076 33.9802L6.42348 66.4357C6.37053 66.479 6.31277 66.5175 6.26464 66.556C2.27929 69.6076 0.989346 74.6904 3.49704 77.9056C6.04804 81.1738 11.4677 81.1786 15.5012 77.9201L38.5758 59.0378C38.5758 59.0378 38.2389 61.5888 38.2629 63.1194ZM97.5619 71.6533C92.8064 76.505 86.1545 79.2485 78.9491 79.2581C71.7389 79.2726 65.0822 76.5483 60.3268 71.711C58.002 69.3525 56.2981 66.6475 55.2392 63.7548C54.2043 60.915 53.8097 57.8778 54.0744 54.8695C54.3295 51.9335 55.1959 49.0792 56.6254 46.4993C58.0164 43.9772 59.9273 41.7006 62.2857 39.7753C66.9064 36.0065 72.7882 33.9705 78.9491 33.9609C85.11 33.9513 90.987 35.9776 95.6125 39.7271C97.9662 41.6476 99.877 43.9146 101.263 46.432C102.693 49.0118 103.564 51.8613 103.819 54.7973C104.084 57.8104 103.684 60.8428 102.649 63.6874C101.591 66.5753 99.8818 69.2851 97.5619 71.6533Z" fill="#FF7021"/>
</g>
<defs>
<clipPath id="clip0_989_1572">
<rect width="120" height="96.096" fill="white" transform="translate(0.5 0.951904)"/>
</clipPath>
</defs>
</svg>
