<svg width="120" height="142" viewBox="0 0 120 142" fill="none" xmlns="http://www.w3.org/2000/svg">
<path d="M118.304 43.9632C118.349 41.9281 117.859 39.917 116.883 38.1309C115.871 36.4043 114.412 34.9827 112.661 34.0155C97.1316 25.048 81.5973 16.0929 66.0576 7.15043C61.8731 4.73059 57.8174 4.81643 53.6598 7.27384C47.4797 10.9063 16.5308 28.6607 7.30893 34.0102C3.51074 36.21 1.66529 39.5795 1.66529 43.9578V98.0421C1.62609 100.034 2.09701 102.003 3.03328 103.762C4.04546 105.541 5.53108 107.004 7.32503 107.99C16.5469 113.355 47.5011 131.088 53.6813 134.737C57.8389 137.194 61.8946 137.28 66.0844 134.86C81.6098 125.889 97.1441 116.93 112.687 107.984C114.481 106.999 115.967 105.535 116.979 103.756C117.915 101.998 118.386 100.029 118.347 98.0367V43.9632H118.304Z" fill="#004482"/>
<path d="M118.315 98.0422C118.355 100.034 117.884 102.004 116.947 103.762C116.717 104.181 116.457 104.582 116.169 104.964L59.9847 71.0001L112.661 34.0156C114.411 34.9831 115.867 36.4048 116.877 38.131C117.858 39.9157 118.35 41.9275 118.304 43.9633C118.315 61.9914 118.315 98.0422 118.315 98.0422Z" fill="#00599C"/>
<path d="M116.877 38.1309L3.01716 103.762C2.08506 102.004 1.61784 100.037 1.6599 98.0475V43.9578C1.6599 39.5795 3.51071 36.21 7.30354 34.0101C16.5308 28.6607 47.4797 10.9063 53.6651 7.26309C57.812 4.80569 61.8731 4.71984 66.0576 7.13969C81.583 16.1108 97.1173 25.0694 112.661 34.0155C114.411 34.983 115.867 36.4047 116.877 38.1309Z" fill="#659AD2"/>
<path d="M62.2379 92.8484C58.404 92.8538 54.6389 91.8294 51.3361 89.8823C48.0332 87.9352 45.3136 85.1367 43.4615 81.7793C43.272 81.4431 43.0931 81.0997 42.9251 80.7492C40.6398 76.0289 40.1647 70.6343 41.5895 65.5871C43.0144 60.5399 46.2403 56.1905 50.6564 53.3626C55.0725 50.5346 60.3721 49.4245 65.5517 50.2425C70.7312 51.0605 75.4311 53.7497 78.7611 57.8009C79.0455 58.1443 79.2976 58.5038 79.5819 58.874C79.7107 59.0511 79.8394 59.2281 79.9575 59.4105L98.7714 48.5722C98.3136 47.8354 97.8344 47.12 97.3337 46.426C97.0708 46.0558 96.7972 45.7017 96.5397 45.3529C90.0005 36.8565 80.5153 31.1193 69.955 29.2729C59.3947 27.4265 48.5259 29.6049 39.4924 35.3785C30.4589 41.1521 23.9165 50.1017 21.1556 60.4621C18.3947 70.8226 19.6157 81.8417 24.5778 91.346C24.7602 91.6894 24.948 92.0275 25.1143 92.3655C28.7586 98.7963 34.0034 104.176 40.3395 107.981C46.6757 111.787 53.8879 113.889 61.2761 114.085C68.6644 114.28 75.9776 112.562 82.506 109.097C89.0345 105.631 94.5562 100.537 98.5354 94.3078L80.1399 83.1851C78.1923 86.1553 75.536 88.5939 72.4107 90.281C69.2854 91.968 65.7893 92.8503 62.2379 92.8484Z" fill="white"/>
</svg>
