<svg width="80" height="80" viewBox="0 0 80 80" fill="none" xmlns="http://www.w3.org/2000/svg">
<path d="M73.7011 79.9999C73.3165 79.9997 72.9374 79.908 72.596 79.7323C72.2546 79.5567 71.9607 79.3023 71.7389 78.9905C71.5171 78.6787 71.3738 78.3187 71.3212 77.9406C71.2686 77.5625 71.3082 77.1775 71.4367 76.8178C75.7274 64.7856 75.6312 56.2146 71.1482 51.3435C63.312 42.8322 44.2598 47.5269 44.0675 47.5889L41.07 48.3474V21.0412L41.1084 20.8337C41.4621 19.1496 41.2299 17.3962 40.4498 15.86C40.2679 15.6594 40.0396 15.5056 39.7846 15.4117C39.5297 15.3178 39.2557 15.2866 38.9859 15.3208C38.6945 15.2886 38.3996 15.3252 38.1252 15.4276C37.8507 15.53 37.6045 15.6953 37.4067 15.9101C36.5899 17.3885 36.297 19.0964 36.575 20.7597L36.6014 21.1032V57.1592L33.825 56.7299C29.5799 56.0643 28.2099 56.7776 28.0368 57.1068C26.9335 59.2537 32.9645 68.223 40.6902 75.9232C40.913 76.1453 41.0896 76.4088 41.2098 76.6987C41.3301 76.9885 41.3917 77.299 41.391 77.6124C41.3903 77.9259 41.3275 78.236 41.206 78.5253C41.0845 78.8146 40.9068 79.0774 40.683 79.2986C40.4592 79.5197 40.1936 79.6949 39.9016 79.8143C39.6095 79.9336 39.2966 79.9948 38.9808 79.9941C38.6649 79.9934 38.3523 79.9311 38.0607 79.8105C37.7692 79.6899 37.5046 79.5135 37.2817 79.2914C33.241 75.2624 20.3279 61.6105 23.7557 54.9408C25.3061 51.9232 29.0007 51.5415 31.7939 51.6989V21.2654C31.3375 18.2957 32.0446 15.2655 33.7698 12.7971C34.4186 12.0646 35.2228 11.4838 36.1247 11.0965C37.0266 10.7092 38.0037 10.525 38.9859 10.5571C39.9607 10.5204 40.9311 10.7041 41.824 11.0942C42.7168 11.4843 43.5086 12.0707 44.1395 12.809C45.824 15.359 46.447 18.4576 45.8775 21.4538V42.3432C52.2306 41.2316 66.9849 39.755 74.6914 48.116C80.4748 54.3873 80.905 64.5756 75.9701 78.4112C75.804 78.8764 75.4966 79.2792 75.0901 79.5637C74.6837 79.8483 74.1984 80.0006 73.7011 79.9999Z" fill="white"/>
<path d="M11.6527 22.9307C10.9554 22.9322 10.2648 22.7968 9.62041 22.5324C8.97603 22.2679 8.39069 21.8796 7.89814 21.3897L0.674828 14.2214C0.236964 13.7715 -0.00538593 13.169 9.0845e-05 12.5436C0.00556762 11.9181 0.258347 11.3198 0.704024 10.8775C1.1497 10.4352 1.75261 10.1844 2.38287 10.179C3.01313 10.1735 3.62039 10.4139 4.07375 10.8484L11.2994 18.0167C11.3466 18.064 11.4027 18.1016 11.4646 18.1272C11.5265 18.1528 11.593 18.1661 11.66 18.1661C11.7271 18.1661 11.7934 18.1528 11.8553 18.1272C11.9172 18.1016 11.9733 18.064 12.0205 18.0167L27.6979 2.46119C28.1513 2.02666 28.7584 1.78616 29.3886 1.79159C30.0189 1.79703 30.6218 2.04803 31.0675 2.49031C31.5132 2.93259 31.7659 3.53077 31.7714 4.15622C31.7769 4.78168 31.5347 5.38432 31.0968 5.83422L15.4171 21.392C14.9232 21.8826 14.3362 22.2712 13.6901 22.5353C13.044 22.7994 12.3515 22.9338 11.6527 22.9307Z" fill="white"/>
<path d="M75.7348 24.7222C75.0973 24.722 74.4859 24.4706 74.0352 24.0232L53.9014 4.04271C53.4635 3.59281 53.2212 2.99017 53.2267 2.36472C53.2321 1.73926 53.4849 1.14094 53.9306 0.698661C54.3763 0.256379 54.9792 0.0055252 55.6094 9.0153e-05C56.2397 -0.0053449 56.847 0.235158 57.3003 0.669687L77.4341 20.6501C77.7702 20.9838 77.999 21.4087 78.0917 21.8714C78.1844 22.3341 78.1369 22.8137 77.955 23.2495C77.7731 23.6853 77.465 24.0578 77.0698 24.3199C76.6746 24.582 76.2101 24.7221 75.7348 24.7222Z" fill="white"/>
<path d="M55.6007 24.7222C55.1254 24.7221 54.6609 24.582 54.2657 24.3199C53.8705 24.0578 53.5624 23.6853 53.3805 23.2495C53.1986 22.8137 53.1509 22.3341 53.2436 21.8714C53.3364 21.4087 53.5653 20.9838 53.9014 20.6501L74.0352 0.669687C74.4885 0.235158 75.0958 -0.0053449 75.7261 9.0153e-05C76.3563 0.0055252 76.9591 0.256379 77.4048 0.698661C77.8504 1.14094 78.1034 1.73926 78.1088 2.36472C78.1143 2.99017 77.872 3.59281 77.4341 4.04271L57.3003 24.0232C56.8496 24.4706 56.2382 24.722 55.6007 24.7222Z" fill="white"/>
</svg>
