<svg width="60" height="90" viewBox="0 0 60 90" fill="none" xmlns="http://www.w3.org/2000/svg">
<path fill-rule="evenodd" clip-rule="evenodd" d="M30 45C30 36.7157 36.7157 30 45 30C53.2843 30 60 36.7157 60 45C60 53.2843 53.2843 60 45 60C36.7157 60 30 53.2843 30 45Z" fill="#1ABCFE"/>
<path fill-rule="evenodd" clip-rule="evenodd" d="M0 75C0 66.7157 6.71573 60 15 60H30V75C30 83.2843 23.2843 90 15 90C6.71573 90 0 83.2843 0 75Z" fill="#0ACF83"/>
<path fill-rule="evenodd" clip-rule="evenodd" d="M30 0V30H45C53.2843 30 60 23.2843 60 15C60 6.71573 53.2843 0 45 0H30Z" fill="#FF7262"/>
<path fill-rule="evenodd" clip-rule="evenodd" d="M0 15C0 23.2843 6.71573 30 15 30H30V0H15C6.71573 0 0 6.71573 0 15Z" fill="#F24E1E"/>
<path fill-rule="evenodd" clip-rule="evenodd" d="M0 45C0 53.2843 6.71573 60 15 60H30V30H15C6.71573 30 0 36.7157 0 45Z" fill="#A259FF"/>
</svg>
