<svg width="50" height="50" viewBox="0 0 50 50" fill="none" xmlns="http://www.w3.org/2000/svg">
<path d="M25 0.5C21.717 0.5 18.4661 1.14944 15.4329 2.41125C12.3998 3.67306 9.6438 5.52252 7.32233 7.85404C2.63392 12.5628 0 18.9491 0 25.6083C0 36.7061 7.175 46.1217 17.1 49.4611C18.35 49.662 18.75 48.8836 18.75 48.2057V43.9624C11.825 45.4689 10.35 40.5979 10.35 40.5979C9.2 37.6853 7.575 36.907 7.575 36.907C5.3 35.3503 7.75 35.4005 7.75 35.4005C10.25 35.5762 11.575 37.9866 11.575 37.9866C13.75 41.8031 17.425 40.6732 18.85 40.0706C19.075 38.4386 19.725 37.3338 20.425 36.7061C14.875 36.0784 9.05 33.9191 9.05 24.3528C9.05 21.5658 10 19.3312 11.625 17.5485C11.375 16.9208 10.5 14.3095 11.875 10.9199C11.875 10.9199 13.975 10.242 18.75 13.481C20.725 12.9286 22.875 12.6524 25 12.6524C27.125 12.6524 29.275 12.9286 31.25 13.481C36.025 10.242 38.125 10.9199 38.125 10.9199C39.5 14.3095 38.625 16.9208 38.375 17.5485C40 19.3312 40.95 21.5658 40.95 24.3528C40.95 33.9442 35.1 36.0533 29.525 36.681C30.425 37.4594 31.25 38.991 31.25 41.326V48.2057C31.25 48.8836 31.65 49.6871 32.925 49.4611C42.85 46.0966 50 36.7061 50 25.6083C50 22.311 49.3534 19.046 48.097 15.9997C46.8406 12.9535 44.9991 10.1856 42.6777 7.85404C40.3562 5.52252 37.6002 3.67306 34.5671 2.41125C31.5339 1.14944 28.283 0.5 25 0.5Z" fill="white"/>
</svg>
