<svg width="20" height="20" viewBox="0 0 20 20" fill="none" xmlns="http://www.w3.org/2000/svg">
<path d="M5.7998 0.5H14.2002C17.1239 0.500105 19.4999 2.8761 19.5 5.7998V14.2002C19.4999 15.6058 18.9412 16.9534 17.9473 17.9473C16.9534 18.9412 15.6058 19.4999 14.2002 19.5H5.7998C2.8761 19.4999 0.500105 17.1239 0.5 14.2002V5.7998C0.500052 4.39423 1.05884 3.04663 2.05273 2.05273C3.04663 1.05884 4.39423 0.500052 5.7998 0.5ZM5.59961 1.5C4.51236 1.5001 3.46998 1.93236 2.70117 2.70117C1.93236 3.46998 1.5001 4.51236 1.5 5.59961V14.4004C1.50021 16.6662 3.33378 18.4998 5.59961 18.5H14.4004C15.4876 18.4999 16.53 18.0676 17.2988 17.2988C18.0676 16.53 18.4999 15.4876 18.5 14.4004V5.59961C18.4998 3.33378 16.6662 1.50021 14.4004 1.5H5.59961ZM10 5.5C11.1935 5.5 12.3377 5.97445 13.1816 6.81836C14.0256 7.66227 14.5 8.80653 14.5 10C14.5 11.1935 14.0256 12.3377 13.1816 13.1816C12.3377 14.0256 11.1935 14.5 10 14.5C8.80653 14.5 7.66227 14.0256 6.81836 13.1816C5.97445 12.3377 5.5 11.1935 5.5 10C5.5 8.80653 5.97445 7.66227 6.81836 6.81836C7.66227 5.97445 8.80653 5.5 10 5.5ZM10 6.5C9.07174 6.5 8.18177 6.86901 7.52539 7.52539C6.86901 8.18177 6.5 9.07174 6.5 10C6.5 10.9283 6.86901 11.8182 7.52539 12.4746C8.18177 13.131 9.07174 13.5 10 13.5C10.9283 13.5 11.8182 13.131 12.4746 12.4746C13.131 11.8182 13.5 10.9283 13.5 10C13.5 9.07174 13.131 8.18177 12.4746 7.52539C11.8182 6.86901 10.9283 6.5 10 6.5ZM15.25 4C15.4489 4 15.6396 4.07907 15.7803 4.21973C15.9209 4.36038 16 4.55109 16 4.75C16 4.94891 15.9209 5.13962 15.7803 5.28027C15.6396 5.42093 15.4489 5.5 15.25 5.5C15.0511 5.5 14.8604 5.42093 14.7197 5.28027C14.5791 5.13962 14.5 4.94891 14.5 4.75C14.5 4.55109 14.5791 4.36038 14.7197 4.21973C14.8604 4.07907 15.0511 4 15.25 4Z" fill="#EE2A7B" stroke="#EE2A7B"/>
</svg>
