<svg width="120" height="120" viewBox="0 0 120 120" fill="none" xmlns="http://www.w3.org/2000/svg">
<path d="M40.2738 92.803C40.2738 92.803 35.4035 95.4696 43.7401 96.3719C53.8399 97.4566 59.0015 97.3013 70.1317 95.3178C70.1317 95.3178 73.058 97.0453 77.1442 98.5417C52.1941 108.61 20.6764 97.9584 40.2738 92.803ZM37.225 79.6648C37.225 79.6648 31.7623 83.4721 40.1052 84.2844C50.894 85.3323 59.4141 85.4181 74.1573 82.7452C74.1573 82.7452 76.1966 84.6916 79.403 85.7562C49.2364 94.0614 15.6363 86.4111 37.225 79.6648Z" fill="#5382A1"/>
<path d="M62.9272 57.3784C69.0752 64.0424 61.312 70.0393 61.312 70.0393C61.312 70.0393 76.9221 62.4521 69.7531 52.951C63.0575 44.0912 57.9225 39.6884 85.72 24.51C85.72 24.51 42.0873 34.7703 62.9272 57.3784Z" fill="#E76F00"/>
<path d="M95.9264 102.521C95.9264 102.521 99.5307 105.317 91.9568 107.48C77.5552 111.588 32.0154 112.828 19.3644 107.643C14.817 105.781 23.3451 103.196 26.0276 102.653C28.8251 102.082 30.4241 102.189 30.4241 102.189C25.3666 98.8343 -2.2652 108.775 16.3886 111.622C67.2598 119.389 109.122 108.125 95.9264 102.521ZM42.6156 66.0524C42.6156 66.0524 19.4515 71.2328 34.4129 73.1135C40.7299 73.9098 53.3228 73.7298 65.053 72.8042C74.6396 72.0433 84.2656 70.4243 84.2656 70.4243C84.2656 70.4243 80.8853 71.7873 78.4398 73.3595C54.9167 79.1843 9.47421 76.4746 22.5565 70.5163C33.6202 65.4812 42.6156 66.0524 42.6156 66.0524ZM84.17 87.9211C108.083 76.222 97.0265 64.9795 89.3094 66.4943C87.4178 66.8647 86.5746 67.1857 86.5746 67.1857C86.5746 67.1857 87.2768 66.1504 88.6179 65.7022C103.884 60.6486 115.626 80.6064 83.6895 88.5107C83.6895 88.5111 84.0597 88.1998 84.17 87.9211Z" fill="#5382A1"/>
<path d="M69.7533 0.000347438C69.7533 0.000347438 82.9965 12.4735 57.1928 31.6527C36.5013 47.0382 52.4745 55.8104 57.1844 65.8331C45.1062 55.5731 36.2422 46.541 42.189 38.135C50.9168 25.7948 75.0965 19.8126 69.7533 0.000347438Z" fill="#E76F00"/>
<path d="M44.9656 119.623C67.9186 121.006 103.165 118.855 104 108.63C104 108.63 102.396 112.506 85.0307 115.585C65.4399 119.056 41.2776 118.651 26.9465 116.426C26.9469 116.426 29.8799 118.712 44.9656 119.623Z" fill="#5382A1"/>
</svg>
