<svg width="20" height="20" viewBox="0 0 20 20" fill="none" xmlns="http://www.w3.org/2000/svg">
<path d="M2.22266 0.5H17.7773C18.2341 0.5 18.6721 0.681903 18.9951 1.00488C19.3181 1.32786 19.5 1.76589 19.5 2.22266V17.7773C19.5 18.2341 19.3181 18.6721 18.9951 18.9951C18.6721 19.3181 18.2341 19.5 17.7773 19.5H2.22266C1.76589 19.5 1.32786 19.3181 1.00488 18.9951C0.681903 18.6721 0.5 18.2341 0.5 17.7773V2.22266C0.5 1.76589 0.681904 1.32786 1.00488 1.00488C1.32786 0.681904 1.76589 0.5 2.22266 0.5ZM2.27734 17.7227H6.35547V7.42188H2.27734V17.7227ZM13.5996 7.21094C12.9018 7.21103 12.1447 7.47212 11.5225 7.91797V7.42188H7.42188V17.7227H11.5225V11.7441C11.5226 11.1603 11.9919 10.6886 12.5664 10.6885C12.8464 10.6885 13.1155 10.8001 13.3135 10.998C13.5112 11.1959 13.622 11.4644 13.6221 11.7441V17.7227H17.7227V11.333C17.7226 10.2399 17.2876 9.19192 16.5146 8.41895C15.7416 7.64588 14.6929 7.21094 13.5996 7.21094ZM4.31152 1.93359C3.6809 1.93359 3.0758 2.18396 2.62988 2.62988C2.18396 3.0758 1.93359 3.6809 1.93359 4.31152C1.93382 5.62466 3.00606 6.67773 4.31152 6.67773C4.93905 6.67763 5.54064 6.42811 5.98438 5.98438C6.42811 5.54064 6.67763 4.93905 6.67773 4.31152C6.67773 3.00606 5.62466 1.93382 4.31152 1.93359Z" fill="#0077B5" stroke="#0077B5"/>
</svg>
