<svg width="40" height="40" viewBox="0 0 40 40" fill="none" xmlns="http://www.w3.org/2000/svg">
<path d="M4.44434 0.5H35.5557C36.6018 0.500028 37.605 0.915572 38.3447 1.65527C39.0844 2.39497 39.5 3.39824 39.5 4.44434V35.5557C39.5 36.6018 39.0844 37.605 38.3447 38.3447C37.605 39.0844 36.6018 39.5 35.5557 39.5H4.44434C3.39824 39.5 2.39497 39.0844 1.65527 38.3447C0.915572 37.605 0.500028 36.6018 0.5 35.5557V4.44434C0.500029 3.39824 0.915572 2.39497 1.65527 1.65527C2.39497 0.915572 3.39824 0.500029 4.44434 0.5ZM5.05566 34.9443H12.2109V15.3447H5.05566V34.9443ZM27.2002 14.9219C25.5953 14.9219 23.806 15.6799 22.5449 16.9072V15.3447H15.3447V34.9443H22.5449V23.4893C22.5449 22.0496 23.7035 20.8779 25.1338 20.8779C25.8261 20.878 26.4899 21.1531 26.9795 21.6426C27.4692 22.1323 27.7441 22.7967 27.7441 23.4893V34.9443H34.9443V22.667C34.9443 20.613 34.1281 18.6428 32.6758 17.1904C31.2235 15.7383 29.254 14.9219 27.2002 14.9219ZM8.62207 4.36621C7.49348 4.36625 6.41132 4.81525 5.61328 5.61328C4.81525 6.41132 4.36625 7.49348 4.36621 8.62207C4.36621 10.9687 6.2832 12.8554 8.62207 12.8555C9.74482 12.8555 10.8213 12.4091 11.6152 11.6152C12.4091 10.8213 12.8555 9.74482 12.8555 8.62207C12.8554 6.2832 10.9687 4.36621 8.62207 4.36621Z" fill="white" stroke="white"/>
</svg>
