<svg width="36" height="37" viewBox="0 0 36 37" fill="none" xmlns="http://www.w3.org/2000/svg">
<path d="M30.0138 10.173C35.5007 11.0752 37.3097 19.3575 32.9959 22.6295L32.9836 23.2809C36.2007 24.5002 36.5849 28.9456 35.3487 31.7415C34.106 34.5512 31.6218 35.6509 28.6386 35.9478C20.003 36.8078 10.0349 35.3183 1.25116 35.9536L0.309738 35.5292C-0.112742 34.927 -0.231834 30.2744 0.795268 29.621H29.7853L29.7136 26.7509L29.1009 26.0025H10.1545V20.1225H28.644C29.9173 20.1225 29.9173 16.0519 28.644 16.0519H20.1981V10.1719C23.1921 10.5168 27.1588 9.70266 30.0138 10.1719V10.173Z" fill="white"/>
<path d="M29.329 0.2229V6.55502H6.50211V10.173H16.0893V16.0529H6.50211V26.003H0.110474V0.901436L0.795389 0.2229H29.329Z" fill="white"/>
</svg>
