<svg width="22" height="22" viewBox="0 0 22 22" fill="none" xmlns="http://www.w3.org/2000/svg">
<path d="M4.80153 12.441L11.7233 19.5502C12.0058 19.8404 12.1414 20.1789 12.1301 20.5658C12.1188 20.9527 11.9714 21.2912 11.688 21.5814C11.4055 21.8474 11.0759 21.9866 10.6992 21.9992C10.3225 22.0118 9.99285 21.8725 9.71033 21.5814L0.38714 12.0058C0.24588 11.8607 0.145585 11.7035 0.0862556 11.5342C0.0269262 11.365 -0.00179654 11.1836 8.693e-05 10.9902C0.0019704 10.7967 0.0316347 10.6154 0.0890806 10.4461C0.146527 10.2768 0.246351 10.1197 0.388553 9.97459L9.71174 0.398983C9.97072 0.132994 10.2947 0 10.6836 0C11.0726 0 11.4078 0.132994 11.6894 0.398983C11.9719 0.689153 12.1132 1.03397 12.1132 1.43344C12.1132 1.83291 11.9719 2.17724 11.6894 2.46644L4.80153 9.53933H20.5874C20.9876 9.53933 21.3234 9.67861 21.5946 9.95718C21.8658 10.2357 22.0009 10.5801 22 10.9902C21.9991 11.4003 21.8634 11.7451 21.5932 12.0246C21.3229 12.3042 20.9876 12.443 20.5874 12.441H4.80153Z" fill="white"/>
</svg>
