<svg width="21" height="21" viewBox="0 0 21 21" fill="none" xmlns="http://www.w3.org/2000/svg">
<path d="M11.2964 0.0833311C9.41066 0.0836776 7.5604 0.595906 5.94298 1.56538C4.32555 2.53485 3.00162 3.92519 2.11243 5.58811C1.22323 7.25102 0.802117 9.12412 0.894007 11.0076C0.985898 12.8911 1.58734 14.7143 2.63419 16.2828C3.68104 17.8512 5.13402 19.1061 6.83814 19.9135C8.54225 20.7209 10.4336 21.0506 12.3104 20.8674C14.1872 20.6842 15.9791 19.9949 17.4948 18.8732C19.0106 17.7514 20.1935 16.2392 20.9172 14.4979C21.2724 13.6437 20.4214 12.7854 19.5651 13.1333C18.0976 13.7278 16.4682 13.7891 14.9601 13.3067C13.452 12.8243 12.1607 11.8286 11.3107 10.4927C10.4607 9.15689 10.1057 7.56539 10.3075 5.99495C10.5092 4.42451 11.255 2.97444 12.4151 1.89687L12.4953 1.81354C13.0693 1.15729 12.6131 0.0916645 11.7058 0.0916645H11.4287L11.3578 0.0854144L11.2964 0.0833311Z" fill="white"/>
</svg>
