<svg width="120" height="120" viewBox="0 0 120 120" fill="none" xmlns="http://www.w3.org/2000/svg">
<path d="M105.723 28.438L64.3819 4.43333C61.7747 2.94833 58.38 2.94833 55.7522 4.43333L13.9697 28.438C11.2791 29.9858 9.375 32.8949 9.375 36.0065V83.9521C9.375 87.0636 11.3288 89.9736 14.0194 91.5299L25.0584 97.7999C30.3347 100.399 32.1994 100.399 34.6003 100.399C42.4125 100.399 46.875 95.6746 46.875 87.4349V40.1005C46.875 39.4321 46.5272 38.4374 45.8709 38.4374H40.5994C39.9319 38.4374 38.4375 39.4321 38.4375 40.0996V87.4339C38.4375 91.0864 35.1337 94.7211 28.9594 91.6339L17.5528 85.0593C17.1553 84.8436 16.875 84.4096 16.875 83.9521V36.0065C16.875 35.5546 17.3953 35.1008 17.7956 34.8693L59.4431 10.9058C59.8322 10.6855 60.4041 10.6855 60.7922 10.9058L101.932 34.8636C102.325 35.1008 102.187 35.5405 102.187 36.0065V83.9521C102.187 84.4096 102.358 84.8549 101.969 85.0752L60.6384 109.053C60.2841 109.266 59.8444 109.266 59.4562 109.053L48.8559 102.726C48.5362 102.54 48.1566 102.473 47.85 102.645C44.9006 104.316 44.3569 104.539 41.5903 105.498C40.9097 105.735 39.9056 106.146 41.9747 107.306L55.8478 115.513C57.1723 116.278 58.6748 116.681 60.2044 116.681C61.7438 116.681 63.2513 116.282 64.5797 115.513L105.722 91.5299C108.412 89.9624 109.688 87.0636 109.688 83.9521V36.0065C109.688 32.8949 108.413 29.9933 105.723 28.438ZM73.0406 76.3546C62.0475 76.3546 59.6259 73.3218 58.8188 67.8552C58.725 67.2664 58.2253 66.5624 57.6262 66.5624H52.2534C51.5887 66.5624 51.0544 67.3686 51.0544 68.0305C51.0544 75.0299 54.8597 83.5105 73.0416 83.5105C86.2031 83.5105 93.7491 78.3965 93.7491 69.3458C93.7491 60.3721 87.6862 58.0171 74.9222 56.3277C62.0203 54.6224 60.7097 53.7608 60.7097 50.7383C60.7097 48.2465 61.8197 44.923 71.3728 44.923C79.9087 44.923 83.055 46.7549 84.3497 52.5083C84.4603 53.0493 84.9544 53.4374 85.5122 53.4374H90.9066C91.2384 53.4374 91.5553 53.3033 91.7878 53.0661C92.0128 52.8111 92.1319 52.4915 92.1019 52.1483C91.2666 42.2408 84.6844 37.6236 71.3719 37.6236C59.5303 37.6236 52.4663 42.6243 52.4663 51.0065C52.4663 60.0983 59.4947 62.6108 70.8619 63.7349C84.4603 65.068 85.5178 67.0555 85.5178 69.7302C85.5178 74.3755 81.7884 76.3546 73.0406 76.3546Z" fill="#83CD29"/>
</svg>
