<svg width="120" height="120" viewBox="0 0 120 120" fill="none" xmlns="http://www.w3.org/2000/svg">
<path d="M7.5 45.5C7.5 32.1987 7.5 25.5481 10.0886 20.4677C12.3656 15.9989 15.9989 12.3656 20.4677 10.0886C25.5481 7.5 32.1988 7.5 45.5 7.5H74.5C87.8012 7.5 94.4519 7.5 99.5323 10.0886C104.001 12.3656 107.634 15.9989 109.911 20.4677C112.5 25.5481 112.5 32.1988 112.5 45.5V74.5C112.5 87.8012 112.5 94.4519 109.911 99.5323C107.634 104.001 104.001 107.634 99.5323 109.911C94.4519 112.5 87.8012 112.5 74.5 112.5H45.5C32.1987 112.5 25.5481 112.5 20.4677 109.911C15.9989 107.634 12.3656 104.001 10.0886 99.5323C7.5 94.4519 7.5 87.8012 7.5 74.5V45.5Z" fill="#001E36"/>
<path d="M30 84.4359V38.2628C30 37.9487 30.1313 37.7692 30.4375 37.7692C34.9586 37.7692 39.4777 37.5 44 37.5C51.3381 37.5 59.2837 40.0091 62.0688 47.6859C62.725 49.5705 63.075 51.5 63.075 53.5192C63.075 57.3782 62.2 60.5641 60.45 63.0769C55.5616 70.0963 47.0887 69.9872 39.4938 69.9872V84.391C39.5531 84.8175 39.1897 85.0192 38.8375 85.0192H30.525C30.175 85.0192 30 84.8398 30 84.4359ZM39.5375 46.4295V61.5064C42.5489 61.727 45.7002 61.751 48.5938 60.7885C51.7881 59.867 53.5375 57.1018 53.5375 53.7885C53.6263 50.9651 52.0878 48.2561 49.4688 47.2372C46.6101 46.0486 42.6233 45.9774 39.5375 46.4295Z" fill="#31A8FF"/>
<path d="M90.3625 58.5277C89.0387 57.83 87.6288 57.3197 86.1714 57.0105C84.2985 56.5698 76.9117 55.0264 76.9089 58.8889C76.9745 61.0452 80.3974 62.1017 81.9098 62.7177C87.2193 64.5406 93.2276 67.7989 93.1095 74.349C93.2718 82.5031 85.3715 85.7627 78.5993 85.7635C75.0738 85.8 71.401 85.2539 68.1745 83.7406C67.8665 83.5775 67.6683 83.2289 67.6815 82.8736V75.0714C67.6468 74.7586 67.9825 74.4852 68.245 74.7102C71.4063 76.622 75.1535 77.5503 78.8106 77.5999C80.425 77.5999 83.6247 77.4434 83.6005 75.0714C83.6005 72.7951 79.7728 71.7485 78.2471 71.1702C76.0354 70.3807 73.9384 69.2871 72.0134 67.9193C69.3232 66.0004 67.6356 62.9238 67.6815 59.539C67.6658 51.8613 74.938 48.4151 81.4873 48.4135C84.549 48.3883 87.8369 48.615 90.6869 49.8584C91.0968 49.979 91.1818 50.4107 91.18 50.7976V58.0942C91.206 58.5471 90.703 58.7013 90.3625 58.5277Z" fill="#31A8FF"/>
</svg>
