<svg width="130" height="130" viewBox="0 0 130 130" fill="none" xmlns="http://www.w3.org/2000/svg">
<mask id="mask0_996_2313" style="mask-type:luminance" maskUnits="userSpaceOnUse" x="7" y="35" width="116" height="61">
<path d="M7.4 65.2892C7.4 81.7947 33.189 95.1755 65 95.1755C96.811 95.1755 122.6 81.7947 122.6 65.2892C122.6 48.7837 96.811 35.4029 65 35.4029C33.189 35.4029 7.4 48.7839 7.4 65.2892Z" fill="white"/>
</mask>
<g mask="url(#mask0_996_2313)">
<path d="M7.4 65.2892C7.4 81.7947 33.189 95.1755 65 95.1755C96.811 95.1755 122.6 81.7947 122.6 65.2892C122.6 48.7837 96.811 35.4029 65 35.4029C33.189 35.4029 7.4 48.7839 7.4 65.2892Z" fill="url(#paint0_radial_996_2313)"/>
</g>
<mask id="mask1_996_2313" style="mask-type:luminance" maskUnits="userSpaceOnUse" x="5" y="32" width="120" height="67">
<path d="M5 31.9999H125V98.5784H5V31.9999Z" fill="white"/>
</mask>
<g mask="url(#mask1_996_2313)">
<path d="M65 92.9563C95.5687 92.9563 120.35 80.5694 120.35 65.2892C120.35 50.0091 95.5687 37.6222 65 37.6222C34.4312 37.6222 9.65 50.0091 9.65 65.2892C9.65 80.5694 34.4312 92.9563 65 92.9563Z" fill="#777BB3"/>
</g>
<mask id="mask2_996_2313" style="mask-type:luminance" maskUnits="userSpaceOnUse" x="5" y="32" width="120" height="67">
<path d="M5 31.9999H125V98.5784H5V31.9999Z" fill="white"/>
</mask>
<g mask="url(#mask2_996_2313)">
<path d="M38.6946 68.7193C41.2081 68.7193 43.0846 68.2621 44.2717 67.361C45.4462 66.4692 46.2575 64.9235 46.6827 62.7677C47.0792 60.7527 46.9281 59.3457 46.234 58.5864C45.5242 57.8109 43.9896 57.4176 41.6729 57.4176H37.6562L35.4292 68.7195H38.6944L38.6946 68.7193ZM25.5562 82.6412C25.3698 82.6412 25.1927 82.559 25.0742 82.4168C25.0155 82.3467 24.9734 82.2646 24.9507 82.1765C24.928 82.0884 24.9253 81.9964 24.9429 81.9072L30.8446 51.9571C30.8723 51.8167 30.9487 51.6901 31.0606 51.5992C31.1725 51.5082 31.3131 51.4584 31.4581 51.4584H44.1777C48.1752 51.4584 51.1506 52.527 53.0208 54.6408C54.901 56.7635 55.4817 59.7312 54.7465 63.4604C54.4473 64.9798 53.9327 66.3907 53.2173 67.6545C52.5006 68.9192 51.554 70.0895 50.4027 71.1334C49.0244 72.4058 47.4644 73.3284 45.7702 73.8713C44.1029 74.407 41.9619 74.6789 39.406 74.6789H34.2556L32.7848 82.1427C32.7571 82.2831 32.6808 82.4097 32.5689 82.5007C32.457 82.5918 32.3165 82.6416 32.1715 82.6416H25.5562V82.6412Z" fill="black"/>
<path d="M38.1717 58.0338H41.6733C44.4692 58.0338 45.4406 58.639 45.7706 58.9996C46.3181 59.5984 46.4215 60.8609 46.0696 62.6505C45.6742 64.6541 44.9412 66.0746 43.8908 66.8723C42.8154 67.6889 41.0671 68.1028 38.695 68.1028H36.1875L38.1717 58.0338ZM44.1779 50.8417H31.4583C31.1682 50.8417 30.8872 50.9413 30.6633 51.1233C30.4395 51.3053 30.2868 51.5585 30.2315 51.8393L24.3298 81.7898C24.2946 81.9683 24.3 82.1522 24.3453 82.3285C24.3907 82.5047 24.4751 82.6688 24.5923 82.8091C24.7096 82.9494 24.8568 83.0624 25.0236 83.14C25.1903 83.2175 25.3723 83.2578 25.5567 83.2578H32.1712C32.4614 83.2578 32.7425 83.1583 32.9664 82.9763C33.1902 82.7942 33.343 82.5411 33.3983 82.2602L34.7708 75.2951H39.4062C42.0275 75.2951 44.2342 75.0132 45.9646 74.4573C47.7437 73.8871 49.3812 72.9203 50.83 71.5838C52.0283 70.4963 53.0175 69.2757 53.7633 67.9554C54.5092 66.6352 55.0487 65.162 55.3608 63.5781C56.1348 59.6525 55.506 56.5089 53.4921 54.2354C51.4979 51.9836 48.3642 50.8419 44.1783 50.8419M34.6715 69.3359H38.695C41.3617 69.3359 43.3483 68.8407 44.6533 67.8494C45.9583 66.8581 46.8392 65.2037 47.2967 62.8854C47.7342 60.6596 47.535 59.0888 46.6987 58.1736C45.8625 57.2583 44.1862 56.8009 41.6737 56.8009H37.1417L34.6717 69.3357M44.1785 52.0746C48.005 52.0746 50.7965 53.0651 52.551 55.046C54.3056 57.0269 54.8337 59.7924 54.1337 63.3426C53.8456 64.8051 53.3583 66.1422 52.6723 67.3538C51.9862 68.5653 51.0885 69.6744 49.9802 70.6794C48.6594 71.8986 47.1921 72.7672 45.5775 73.285C43.9629 73.8039 41.9067 74.0622 39.4067 74.0622H33.7408L32.1721 82.0249H25.5575L31.4583 52.0746H44.1781" fill="white"/>
<path d="M69.9131 74.6785C69.7265 74.6785 69.5496 74.5963 69.431 74.4541C69.3125 74.3119 69.264 74.1253 69.2998 73.9445L71.9102 60.6925C72.1585 59.4322 72.0973 58.5277 71.7379 58.1455C71.5179 57.9118 70.8571 57.52 68.9031 57.52H64.1735L60.8913 74.1794C60.8636 74.3198 60.7872 74.4465 60.6753 74.5375C60.5634 74.6285 60.4228 74.6783 60.2777 74.6783H53.7152C53.623 74.6783 53.532 74.6582 53.4486 74.6194C53.3652 74.5806 53.2916 74.5241 53.233 74.454C53.1743 74.3838 53.1321 74.3018 53.1095 74.2136C53.0868 74.1255 53.0841 74.0335 53.1017 73.9443L59.0033 43.9942C59.031 43.8538 59.1074 43.7273 59.2193 43.6363C59.3313 43.5453 59.4718 43.4955 59.6169 43.4955H66.1794C66.2716 43.4955 66.3626 43.5156 66.446 43.5544C66.5293 43.5932 66.603 43.6497 66.6616 43.7198C66.7203 43.79 66.7624 43.8721 66.7851 43.9602C66.8078 44.0483 66.8105 44.1403 66.7929 44.2295L65.3688 51.4582H70.4567C74.3327 51.4582 76.9608 52.1322 78.4921 53.5189C80.0546 54.9335 80.5394 57.1951 79.9394 60.2425L77.1935 74.1798C77.1659 74.3203 77.0895 74.4469 76.9776 74.5379C76.8657 74.6289 76.7251 74.6787 76.58 74.6787H69.9133L69.9131 74.6785Z" fill="black"/>
<path d="M66.1792 42.879H59.6167C59.3265 42.879 59.0454 42.9785 58.8215 43.1605C58.5977 43.3425 58.4449 43.5957 58.3896 43.8766L52.4879 73.8267C52.4528 74.0052 52.4581 74.1891 52.5035 74.3654C52.5489 74.5416 52.6332 74.7058 52.7505 74.8461C52.8678 74.9864 53.0151 75.0993 53.1818 75.1769C53.3486 75.2545 53.5306 75.2947 53.715 75.2947H60.2775C60.5676 75.2947 60.8487 75.1952 61.0726 75.0131C61.2965 74.8311 61.4492 74.5779 61.5046 74.297L64.6885 58.1363H68.9031C70.8537 58.1363 71.2631 58.5473 71.2796 58.565C71.3979 58.6903 71.5535 59.2719 71.2967 60.5747L68.6863 73.8267C68.6511 74.0052 68.6564 74.1891 68.7018 74.3654C68.7472 74.5416 68.8316 74.7058 68.9488 74.8461C69.0661 74.9864 69.2134 75.0993 69.3802 75.1769C69.5469 75.2545 69.729 75.2947 69.9133 75.2947H76.58C76.8701 75.2947 77.1512 75.1952 77.3751 75.0131C77.599 74.8311 77.7517 74.5779 77.8071 74.297L80.5529 60.3597C81.1973 57.0883 80.646 54.634 78.9154 53.0649C77.2638 51.5689 74.4971 50.8415 70.4571 50.8415H66.1271L67.4069 44.347C67.4421 44.1685 67.4368 43.9845 67.3914 43.8082C67.346 43.632 67.2616 43.4678 67.1444 43.3275C67.0271 43.1871 66.8798 43.0741 66.713 42.9966C66.5463 42.919 66.3642 42.8788 66.1798 42.8788M66.1798 44.1117L64.611 52.0744H70.4573C74.1358 52.0744 76.6731 52.7077 78.0698 53.9727C79.4665 55.2377 79.8844 57.2893 79.3265 60.1246L76.5806 74.0617H69.914L72.5244 60.8102C72.8215 59.3027 72.7123 58.2744 72.1965 57.7262C71.6806 57.1779 70.5827 56.9034 68.9038 56.9034H63.6583L60.2779 74.0617H53.7154L59.6171 44.1117H66.1796" fill="white"/>
<path d="M90.3229 68.7193C92.8365 68.7193 94.7129 68.2621 95.9 67.361C97.0746 66.4692 97.8858 64.9239 98.3113 62.7677C98.7077 60.7527 98.5567 59.3457 97.8623 58.5864C97.1525 57.8109 95.6179 57.4176 93.3013 57.4176H89.2846L87.0575 68.7195H90.3227L90.3229 68.7193ZM77.185 82.6412C76.9985 82.6412 76.8215 82.559 76.7029 82.4168C76.6443 82.3467 76.6021 82.2646 76.5793 82.1765C76.5566 82.0884 76.5539 81.9964 76.5715 81.9072L82.4731 51.9571C82.5008 51.8167 82.5772 51.6901 82.6892 51.5991C82.8012 51.5081 82.9418 51.4584 83.0869 51.4584H95.8063C99.8042 51.4584 102.779 52.527 104.65 54.6408C106.53 56.7635 107.11 59.7308 106.375 63.4604C106.076 64.9798 105.561 66.3907 104.846 67.6545C104.129 68.9192 103.182 70.0895 102.031 71.1334C100.653 72.4058 99.0927 73.3284 97.3985 73.8713C95.7313 74.407 93.5902 74.6789 91.0344 74.6789H85.8833L84.4131 82.1427C84.3855 82.2832 84.3091 82.4098 84.1971 82.5009C84.0851 82.5919 83.9445 82.6417 83.7994 82.6416H77.1848L77.185 82.6412Z" fill="black"/>
<path d="M89.8 58.0338H93.3017C96.0975 58.0338 97.069 58.639 97.399 58.9996C97.9469 59.5984 98.05 60.8609 97.6979 62.6503C97.3025 64.6539 96.5694 66.0746 95.5192 66.8723C94.4437 67.6889 92.6954 68.1028 90.3233 68.1028H87.8165L89.8 58.0338ZM95.8062 50.8417H83.0867C82.7966 50.8417 82.5155 50.9413 82.2917 51.1233C82.0678 51.3053 81.9151 51.5585 81.8598 51.8393L75.9583 81.7898C75.9232 81.9683 75.9285 82.1522 75.9739 82.3285C76.0193 82.5047 76.1036 82.6688 76.2209 82.8091C76.3381 82.9494 76.4854 83.0624 76.6521 83.14C76.8188 83.2175 77.0009 83.2578 77.1852 83.2578H83.7998C84.0899 83.2578 84.371 83.1583 84.5949 82.9763C84.8188 82.7942 84.9715 82.5411 85.0269 82.2602L86.3992 75.2951H91.0346C93.6558 75.2951 95.8625 75.0132 97.5929 74.4573C99.3721 73.8871 101.01 72.9203 102.459 71.5834C103.657 70.4963 104.644 69.2757 105.392 67.9554C106.14 66.6352 106.677 65.162 106.989 63.5781C107.763 59.6522 107.134 56.5087 105.12 54.2351C103.126 51.9836 99.9927 50.8419 95.8067 50.8419M86.3 69.3359H90.3233C92.99 69.3359 94.9767 68.8407 96.2817 67.8494C97.5867 66.8581 98.4675 65.2037 98.925 62.8854C99.3629 60.6596 99.1635 59.0888 98.3271 58.1736C97.4906 57.2583 95.8146 56.8009 93.3021 56.8009H88.77L86.3002 69.3357M95.8069 52.0746C99.6333 52.0746 102.425 53.0651 104.179 55.046C105.934 57.0269 106.462 59.7924 105.762 63.3426C105.474 64.8051 104.987 66.1422 104.301 67.3538C103.615 68.5653 102.717 69.6744 101.609 70.6794C100.288 71.8986 98.8204 72.7672 97.2058 73.285C95.5912 73.8039 93.535 74.0622 91.035 74.0622H85.3692L83.8004 82.0249H77.1858L83.0875 52.0748H95.8071" fill="white"/>
</g>
<defs>
<radialGradient id="paint0_radial_996_2313" cx="0" cy="0" r="1" gradientUnits="userSpaceOnUse" gradientTransform="translate(41.9833 45.9101) scale(75.637 74.6045)">
<stop stop-color="#AEB2D5"/>
<stop offset="0.3" stop-color="#AEB2D5"/>
<stop offset="0.75" stop-color="#484C89"/>
<stop offset="1" stop-color="#484C89"/>
</radialGradient>
</defs>
</svg>
