<svg width="121" height="120" viewBox="0 0 121 120" fill="none" xmlns="http://www.w3.org/2000/svg">
<path d="M8.16675 45.5C8.16675 32.1988 8.16675 25.5481 10.7553 20.4677C13.0323 15.9989 16.6656 12.3656 21.1345 10.0886C26.2149 7.5 32.8655 7.5 46.1667 7.5H75.1667C88.468 7.5 95.1186 7.5 100.199 10.0886C104.668 12.3656 108.301 15.9989 110.578 20.4677C113.167 25.5481 113.167 32.1988 113.167 45.5V74.5C113.167 87.8012 113.167 94.4519 110.578 99.5323C108.301 104.001 104.668 107.634 100.199 109.911C95.1186 112.5 88.468 112.5 75.1667 112.5H46.1667C32.8655 112.5 26.2149 112.5 21.1345 109.911C16.6656 107.634 13.0323 104.001 10.7553 99.5323C8.16675 94.4519 8.16675 87.8012 8.16675 74.5V45.5Z" fill="#00005B"/>
<path d="M30.6667 81.7338V34.5299C30.6667 34.2087 30.7984 34.0252 31.1056 34.0252C35.6402 34.0252 40.1727 33.75 44.7085 33.75C52.0685 33.75 60.0378 36.3151 62.8312 44.1633C63.4894 46.09 63.8405 48.0626 63.8405 50.1269C63.8405 54.072 62.9629 57.329 61.2076 59.898C56.3046 67.074 47.8065 66.9625 40.1888 66.9625V81.6879C40.2484 82.1239 39.8839 82.3301 39.5306 82.3301H31.1933C30.8423 82.3301 30.6667 82.1467 30.6667 81.7338ZM40.2327 42.8788V58.2924C43.2531 58.5179 46.4138 58.5424 49.316 57.5584C52.5199 56.6164 54.2745 53.7895 54.2745 50.4021C54.3636 47.5157 52.8205 44.7462 50.1936 43.7046C47.3264 42.4894 43.3277 42.4166 40.2327 42.8788Z" fill="#9999FF"/>
<path d="M69.7887 45.7947H77.4895C77.9141 45.7986 78.2953 46.1052 78.4078 46.5333C78.9722 47.8433 79.0416 49.423 79.0437 50.8372C80.3643 49.2297 81.9568 47.8903 83.7416 46.886C85.6559 45.7536 87.8261 45.1797 90.0253 45.2242C90.3902 45.1696 90.7133 45.5074 90.6612 45.8889V54.8256C90.6612 55.1706 90.4249 55.3426 89.9548 55.3426C86.6953 55.1074 81.6206 55.9125 79.2523 58.5922V81.8289C79.2523 82.272 79.0638 82.4936 78.687 82.4936H70.4246C70.0187 82.5545 69.6607 82.1726 69.718 81.755V56.5243C69.718 53.1434 69.7881 49.6608 69.2942 46.3118C69.2181 46.0036 69.5004 45.7171 69.7887 45.7947Z" fill="#9999FF"/>
</svg>
