<svg width="120" height="120" viewBox="0 0 120 120" fill="none" xmlns="http://www.w3.org/2000/svg">
<g clip-path="url(#clip0_989_786)">
<path d="M59.4862 0.0339355C29.0991 0.0339355 30.9964 13.2645 30.9964 13.2645L31.0302 26.9718H60.0281V31.0871H19.5127C19.5127 31.0871 0.0679321 28.873 0.0679321 59.6565C0.0679321 90.441 17.0398 89.3492 17.0398 89.3492H27.1685V75.0641C27.1685 75.0641 26.6225 58.0241 43.8694 58.0241H72.6302C72.6302 58.0241 88.7888 58.2862 88.7888 42.3445V15.9859C88.7888 15.9859 91.2429 0.0339355 59.4862 0.0339355ZM43.4968 9.25182C44.1821 9.2512 44.8607 9.38625 45.4939 9.64925C46.1271 9.91225 46.7024 10.298 47.1869 10.7845C47.6715 11.271 48.0557 11.8486 48.3177 12.4844C48.5796 13.1201 48.7141 13.8015 48.7135 14.4895C48.7141 15.1775 48.5796 15.8588 48.3177 16.4946C48.0557 17.1303 47.6715 17.7079 47.1869 18.1944C46.7024 18.6809 46.1271 19.0667 45.4939 19.3297C44.8607 19.5927 44.1821 19.7277 43.4968 19.7271C42.8116 19.7277 42.1329 19.5927 41.4997 19.3297C40.8665 19.0667 40.2912 18.6809 39.8067 18.1944C39.3221 17.7079 38.9379 17.1303 38.676 16.4946C38.414 15.8588 38.2795 15.1775 38.2801 14.4895C38.2795 13.8015 38.414 13.1201 38.676 12.4844C38.9379 11.8486 39.3221 11.271 39.8067 10.7845C40.2912 10.298 40.8665 9.91225 41.4997 9.64925C42.1329 9.38625 42.8116 9.2512 43.4968 9.25182Z" fill="url(#paint0_linear_989_786)"/>
<path d="M60.3492 119.589C90.7363 119.589 88.839 106.358 88.839 106.358L88.8052 92.6512H59.8069V88.5359H100.322C100.322 88.5359 119.767 90.7501 119.767 59.9656C119.767 29.1816 102.795 30.2733 102.795 30.2733H92.6664V44.558C92.6664 44.558 93.2125 61.598 75.9655 61.598H47.2048C47.2048 61.598 31.0462 61.3359 31.0462 77.2781V103.637C31.0462 103.637 28.5925 119.589 60.3487 119.589H60.3492ZM76.3386 110.372C75.6534 110.372 74.9747 110.237 74.3415 109.974C73.7083 109.711 73.133 109.325 72.6485 108.839C72.1639 108.353 71.7797 107.775 71.5178 107.139C71.2558 106.503 71.1213 105.822 71.1219 105.134C71.1212 104.446 71.2557 103.765 71.5176 103.129C71.7795 102.493 72.1638 101.915 72.6483 101.429C73.1329 100.942 73.7082 100.556 74.3414 100.293C74.9747 100.03 75.6533 99.8953 76.3386 99.8959C77.0238 99.8953 77.7025 100.03 78.3357 100.293C78.9689 100.556 79.5442 100.942 80.0287 101.429C80.5133 101.915 80.8975 102.493 81.1595 103.128C81.4214 103.764 81.5559 104.446 81.5553 105.134C81.5559 105.822 81.4214 106.503 81.1595 107.139C80.8975 107.774 80.5133 108.352 80.0287 108.839C79.5442 109.325 78.9689 109.711 78.3357 109.974C77.7025 110.237 77.0238 110.372 76.3386 110.372Z" fill="url(#paint1_linear_989_786)"/>
</g>
<defs>
<linearGradient id="paint0_linear_989_786" x1="1150.37" y1="1075.36" x2="7105.83" y2="6947.82" gradientUnits="userSpaceOnUse">
<stop stop-color="#387EB8"/>
<stop offset="1" stop-color="#366994"/>
</linearGradient>
<linearGradient id="paint1_linear_989_786" x1="1728.9" y1="1868.39" x2="8123.19" y2="7888.94" gradientUnits="userSpaceOnUse">
<stop stop-color="#FFE052"/>
<stop offset="1" stop-color="#FFC331"/>
</linearGradient>
<clipPath id="clip0_989_786">
<rect width="120" height="120" fill="white"/>
</clipPath>
</defs>
</svg>
