<svg width="42" height="33" viewBox="0 0 42 33" fill="none" xmlns="http://www.w3.org/2000/svg">
<path d="M13.8947 15.6316H3.66474C3.98753 13.482 4.75511 11.4233 5.91845 9.58708C7.08178 7.75086 8.6153 6.17746 10.4211 4.96737L13.53 2.88316L11.6195 0L8.51053 2.08421C5.89359 3.82813 3.7476 6.19108 2.26299 8.96336C0.778377 11.7356 0.00105441 14.8315 0 17.9763V29.5263C0 30.4476 0.365976 31.3311 1.01742 31.9826C1.66886 32.634 2.55241 33 3.47368 33H13.8947C14.816 33 15.6996 32.634 16.351 31.9826C17.0024 31.3311 17.3684 30.4476 17.3684 29.5263V19.1053C17.3684 18.184 17.0024 17.3004 16.351 16.649C15.6996 15.9976 14.816 15.6316 13.8947 15.6316ZM38.2105 15.6316H27.9805C28.3033 13.482 29.0709 11.4233 30.2342 9.58708C31.3976 7.75086 32.9311 6.17746 34.7368 4.96737L37.8458 2.88316L35.9526 0L32.8263 2.08421C30.2094 3.82813 28.0634 6.19108 26.5788 8.96336C25.0942 11.7356 24.3168 14.8315 24.3158 17.9763V29.5263C24.3158 30.4476 24.6818 31.3311 25.3332 31.9826C25.9847 32.634 26.8682 33 27.7895 33H38.2105C39.1318 33 40.0154 32.634 40.6668 31.9826C41.3182 31.3311 41.6842 30.4476 41.6842 29.5263V19.1053C41.6842 18.184 41.3182 17.3004 40.6668 16.649C40.0154 15.9976 39.1318 15.6316 38.2105 15.6316Z" fill="white"/>
</svg>
