<svg width="120" height="108" viewBox="0 0 120 108" fill="none" xmlns="http://www.w3.org/2000/svg">
<path d="M120 54.0123C120 46.0476 110.045 38.4994 94.7819 33.8186C98.3041 18.2322 96.7387 5.83163 89.841 1.8615C88.2511 0.930231 86.3922 0.489106 84.362 0.489106V5.95416C85.4872 5.95416 86.3922 6.17472 87.1504 6.59134C90.477 8.50289 91.9201 15.7815 90.795 25.1431C90.5259 27.4468 90.0856 29.873 89.5475 32.3482C84.7534 31.1718 79.519 30.2651 74.0155 29.6769C70.7134 25.1431 67.289 21.0259 63.8402 17.4234C71.8141 9.99781 79.2988 5.92965 84.3865 5.92965V0.4646C77.66 0.4646 68.8545 5.26797 59.9511 13.6003C51.0477 5.31698 42.2422 0.562628 35.5157 0.562628V6.02768C40.5789 6.02768 48.0881 10.0713 56.062 17.4479C52.6376 21.0505 49.2132 25.1431 45.9601 29.6769C40.4321 30.2651 35.1977 31.1718 30.4036 32.3727C29.841 29.922 29.4252 27.5448 29.1317 25.2657C27.9821 15.904 29.4007 8.62542 32.7028 6.68937C33.4366 6.24824 34.3905 6.05219 35.5157 6.05219V0.587134C33.4611 0.587134 31.6021 1.02826 29.9878 1.95952C23.1146 5.92965 21.5736 18.3057 25.1203 33.8431C9.90624 38.5484 0 46.0721 0 54.0123C0 61.9771 9.95515 69.5252 25.2181 74.2061C21.6959 89.7925 23.2613 102.193 30.159 106.163C31.7489 107.094 33.6078 107.536 35.6625 107.536C42.3889 107.536 51.1945 102.732 60.0978 94.3998C69.0012 102.683 77.8068 107.438 84.5332 107.438C86.5878 107.438 88.4468 106.996 90.0612 106.065C96.9344 102.095 98.4753 89.719 94.9287 74.1816C110.094 69.5007 120 61.9526 120 54.0123ZM88.1533 37.6662C87.2483 40.8276 86.1231 44.087 84.8512 47.3464C83.8483 45.3859 82.7966 43.4253 81.647 41.4648C80.5218 39.5042 79.3233 37.5927 78.1248 35.7301C81.5981 36.2448 84.949 36.882 88.1533 37.6662ZM76.9507 63.7661C75.0428 67.0745 73.086 70.2114 71.0559 73.1278C67.4113 73.4464 63.7179 73.6179 60 73.6179C56.3066 73.6179 52.6131 73.4464 48.9931 73.1523C46.9629 70.2359 44.9817 67.1236 43.0738 63.8396C41.2148 60.6292 39.5271 57.3698 37.9861 54.0858C39.5027 50.8019 41.2148 47.518 43.0493 44.3076C44.9572 40.9991 46.914 37.8622 48.9442 34.9459C52.5887 34.6273 56.2821 34.4558 60 34.4558C63.6934 34.4558 67.3869 34.6273 71.0069 34.9214C73.0371 37.8377 75.0183 40.9501 76.9262 44.234C78.7852 47.4445 80.4729 50.7039 82.0139 53.9878C80.4729 57.2718 78.7852 60.5557 76.9507 63.7661ZM84.8512 60.5802C86.172 63.8641 87.2972 67.1481 88.2267 70.334C85.0224 71.1182 81.647 71.7799 78.1492 72.2945C79.3477 70.4075 80.5463 68.4714 81.6714 66.4864C82.7966 64.5258 83.8483 62.5407 84.8512 60.5802ZM60.0489 86.7291C57.7742 84.3765 55.4994 81.7542 53.2491 78.8869C55.4505 78.9849 57.7008 79.0584 59.9755 79.0584C62.2748 79.0584 64.5495 79.0094 66.7754 78.8869C64.574 81.7542 62.2992 84.3765 60.0489 86.7291ZM41.8508 72.2945C38.3775 71.7799 35.0265 71.1427 31.8223 70.3585C32.7273 67.1971 33.8524 63.9377 35.1243 60.6782C36.1272 62.6388 37.179 64.5993 38.3286 66.5599C39.4782 68.5205 40.6523 70.432 41.8508 72.2945ZM59.9266 21.2955C62.2014 23.6482 64.4762 26.2704 66.7265 29.1378C64.5251 29.0397 62.2748 28.9662 60 28.9662C57.7008 28.9662 55.426 29.0152 53.2002 29.1378C55.4016 26.2704 57.6763 23.6482 59.9266 21.2955ZM41.8263 35.7301C40.6278 37.6172 39.4293 39.5532 38.3041 41.5383C37.179 43.4988 36.1272 45.4594 35.1243 47.42C33.8035 44.136 32.6784 40.8521 31.7489 37.6662C34.9531 36.9065 38.3286 36.2448 41.8263 35.7301ZM19.6902 66.4129C11.0314 62.7123 5.43009 57.8599 5.43009 54.0123C5.43009 50.1647 11.0314 45.2878 19.6902 41.6118C21.7937 40.705 24.0929 39.8963 26.4656 39.1366C27.8598 43.94 29.6943 48.9394 31.969 54.0613C29.7187 59.1588 27.9087 64.1337 26.5389 68.9126C24.1174 68.1528 21.8182 67.3196 19.6902 66.4129ZM32.8496 101.433C29.523 99.5218 28.0799 92.2432 29.2051 82.8815C29.4741 80.5779 29.9144 78.1517 30.4525 75.6765C35.2466 76.8528 40.481 77.7596 45.9845 78.3477C49.2866 82.8815 52.711 86.9987 56.1598 90.6012C48.1859 98.0268 40.7012 102.095 35.6135 102.095C34.5128 102.07 33.5834 101.85 32.8496 101.433ZM90.8683 82.759C92.0179 92.1207 90.5993 99.3992 87.2972 101.335C86.5634 101.776 85.6095 101.972 84.4843 101.972C79.4211 101.972 71.912 97.9288 63.938 90.5522C67.3624 86.9497 70.7868 82.857 74.04 78.3232C79.5679 77.7351 84.8023 76.8283 89.5964 75.6275C90.159 78.1027 90.5993 80.4798 90.8683 82.759ZM100.285 66.4129C98.1818 67.3196 95.8826 68.1283 93.51 68.8881C92.1158 64.0847 90.2813 59.0853 88.0065 53.9633C90.2568 48.8659 92.0669 43.8909 93.4366 39.1121C95.8581 39.8718 98.1574 40.705 100.31 41.6118C108.969 45.3124 114.57 50.1647 114.57 54.0123C114.545 57.8599 108.944 62.7368 100.285 66.4129Z" fill="#61DAFB"/>
<path d="M59.9755 65.2121C66.1491 65.2121 71.1537 60.1978 71.1537 54.0124C71.1537 47.827 66.1491 42.8127 59.9755 42.8127C53.802 42.8127 48.7974 47.827 48.7974 54.0124C48.7974 60.1978 53.802 65.2121 59.9755 65.2121Z" fill="#61DAFB"/>
</svg>
