<svg width="120" height="120" viewBox="0 0 120 120" fill="none" xmlns="http://www.w3.org/2000/svg">
<g clip-path="url(#clip0_989_140)">
<path d="M0 60V0H120V120H0" fill="#007ACC"/>
<path d="M26.31 60.21V65.1H41.91V109.5H52.98V65.1H68.58V60.3C68.58 57.6 68.58 55.41 68.46 55.35C68.46 55.26 58.95 55.23 47.4 55.23L26.4 55.32V60.24L26.31 60.21ZM96.42 55.2C99.48 55.92 101.82 57.3 103.92 59.49C105.03 60.69 106.68 62.79 106.8 63.33C106.8 63.51 101.61 67.02 98.46 68.97C98.34 69.06 97.86 68.55 97.38 67.77C95.82 65.55 94.23 64.59 91.74 64.41C88.14 64.17 85.74 66.06 85.74 69.21C85.74 70.17 85.92 70.71 86.28 71.49C87.09 73.14 88.59 74.13 93.24 76.17C101.82 79.86 105.54 82.29 107.79 85.77C110.34 89.67 110.91 95.79 109.2 100.38C107.28 105.39 102.6 108.78 95.91 109.89C93.81 110.25 89.01 110.19 86.76 109.8C81.96 108.9 77.37 106.5 74.55 103.41C73.44 102.21 71.31 99 71.43 98.79L72.57 98.07L77.07 95.46L80.46 93.48L81.24 94.53C82.23 96.09 84.45 98.19 85.74 98.91C89.64 100.92 94.86 100.65 97.44 98.31C98.55 97.29 99.03 96.21 99.03 94.71C99.03 93.33 98.82 92.7 98.13 91.65C97.17 90.33 95.25 89.25 89.85 86.85C83.64 84.21 81 82.53 78.54 79.95C77.13 78.39 75.84 75.96 75.24 73.95C74.79 72.21 74.64 67.95 75.06 66.24C76.35 60.24 80.88 56.04 87.36 54.84C89.46 54.42 94.41 54.6 96.48 55.14L96.42 55.2Z" fill="white"/>
</g>
<defs>
<clipPath id="clip0_989_140">
<rect width="120" height="120" fill="white"/>
</clipPath>
</defs>
</svg>
