<svg width="120" height="120" viewBox="0 0 120 120" fill="none" xmlns="http://www.w3.org/2000/svg">
<path d="M7.5 45.5C7.5 32.1988 7.5 25.5481 10.0886 20.4677C12.3656 15.9989 15.9989 12.3656 20.4677 10.0886C25.5481 7.5 32.1988 7.5 45.5 7.5H74.5C87.8012 7.5 94.4519 7.5 99.5323 10.0886C104.001 12.3656 107.634 15.9989 109.911 20.4677C112.5 25.5481 112.5 32.1988 112.5 45.5V74.5C112.5 87.8012 112.5 94.4519 109.911 99.5323C107.634 104.001 104.001 107.634 99.5323 109.911C94.4519 112.5 87.8012 112.5 74.5 112.5H45.5C32.1988 112.5 25.5481 112.5 20.4677 109.911C15.9989 107.634 12.3656 104.001 10.0886 99.5323C7.5 94.4519 7.5 87.8012 7.5 74.5V45.5Z" fill="#470137"/>
<path d="M62.4243 38.3768L49.3228 60.5556L63.3399 84.1071C63.6313 84.641 63.3399 84.7589 62.9174 84.7589H52.9153C52.2108 84.7589 51.7177 84.7335 51.436 84.2514C50.496 82.3732 49.5569 80.5069 48.6185 78.6527C47.6786 76.7991 46.6807 74.9087 45.625 72.9814C44.5684 71.0558 43.5236 69.1052 42.4905 67.1297C41.5506 69.0566 40.5057 70.9831 39.4968 72.9093C38.4866 74.8361 37.4887 76.7506 36.5033 78.6527C35.5172 80.5558 34.5076 82.4461 33.4745 84.3237C33.2864 84.7572 32.9572 84.8019 32.4883 84.8019H22.8385C22.4593 84.8019 22.4136 84.5169 22.6272 84.1792L36.2215 61.2779L22.9793 38.3045C22.7387 37.9767 22.9457 37.6274 23.3315 37.6543H33.2631C33.6931 37.63 34.0732 37.7923 34.3196 38.1601C35.1649 40.0869 36.1041 42.0133 37.1371 43.9395C38.1696 45.8664 39.2144 47.7688 40.2716 49.6468C41.3282 51.5251 42.3731 53.4275 43.2653 55.354C44.204 53.3797 45.1549 51.4532 46.118 49.5746C47.08 47.6962 48.0661 45.8058 49.0763 43.9034C50.0857 42.0014 51.0601 40.111 51.9995 38.2323C52.1243 37.8202 52.4227 37.6114 52.8448 37.6543H62.072C62.4243 37.6543 62.57 38.1352 62.4243 38.3768Z" fill="#FF61F6"/>
<path d="M82.6393 85.6969C76.4273 85.7938 69.9207 83.2363 66.65 77.5695C65.053 74.849 64.2547 71.4416 64.2551 67.347C64.2286 64.0313 65.0546 60.7671 66.65 57.8831C70.7663 50.525 79.0589 47.7681 86.9359 48.4915V34.2595C86.9359 33.9231 87.0769 33.7538 87.3586 33.7538H96.2336C96.4762 33.7182 96.6909 33.9384 96.6564 34.1872V76.8832C96.6564 78.6448 96.8309 80.4002 96.9381 82.1569C96.9554 82.4571 96.7818 82.7538 96.5154 82.8794C92.1302 84.7552 87.3856 85.6752 82.6393 85.6969ZM86.9359 76.7387V57.0162C80.5025 55.2287 74.2563 60.129 74.2571 66.9135C74.1044 73.9279 80.1508 78.774 86.9359 76.7387Z" fill="#FF61F6"/>
</svg>
