<svg width="120" height="120" viewBox="0 0 120 120" fill="none" xmlns="http://www.w3.org/2000/svg">
<path d="M7.5 45.5C7.5 32.1988 7.5 25.5481 10.0886 20.4677C12.3656 15.9989 15.9989 12.3656 20.4677 10.0886C25.5481 7.5 32.1988 7.5 45.5 7.5H74.5C87.8012 7.5 94.4519 7.5 99.5323 10.0886C104.001 12.3656 107.634 15.9989 109.911 20.4677C112.5 25.5481 112.5 32.1988 112.5 45.5V74.5C112.5 87.8012 112.5 94.4519 109.911 99.5323C107.634 104.001 104.001 107.634 99.5323 109.911C94.4519 112.5 87.8012 112.5 74.5 112.5H45.5C32.1988 112.5 25.5481 112.5 20.4677 109.911C15.9989 107.634 12.3656 104.001 10.0886 99.5323C7.5 94.4519 7.5 87.8012 7.5 74.5V45.5Z" fill="#00005B"/>
<path d="M51.71 73.3644H35.439L32.1285 83.9322C32.0365 84.324 31.6757 84.6016 31.2832 84.5824H23.042C22.5721 84.5824 22.4077 84.3175 22.549 83.7877L36.6363 42.3474C36.7773 41.914 36.9181 41.4903 37.0591 40.9359C37.2434 39.9721 37.3377 38.9924 37.3409 38.0102C37.3005 37.72 37.5509 37.463 37.8339 37.5044H49.0333C49.3614 37.5044 49.5493 37.6248 49.5969 37.8657L65.5863 83.8599C65.7271 84.3419 65.5862 84.5827 65.1636 84.5824H56.0066C55.6854 84.6189 55.3788 84.3987 55.3023 84.0767L51.71 73.3644ZM37.9747 64.4539H49.1038C47.2753 58.2058 45.2118 52.0397 43.5394 45.7429C41.6441 52.2747 39.8941 58.3324 37.9747 64.4539Z" fill="#9999FF"/>
<path d="M77.4781 69.2839C78.1256 74.6498 82.6315 77.2081 87.6211 77.099C90.4346 77.0437 93.4414 76.607 96.0703 75.5431C96.3047 75.3512 96.4226 75.4709 96.4226 75.9044V82.7675C96.4448 83.1246 96.2956 83.4435 95.9998 83.6343C92.7324 85.1188 88.9813 85.5663 85.4374 85.5095C74.8707 85.5095 67.6138 78.0641 67.6168 67.2318C67.5892 56.9666 74.2488 48.3063 84.5922 48.3063C93.3599 48.079 99.43 55.0989 99.4545 63.8364C99.4545 65.4279 99.3657 67.0248 99.1728 68.6045C99.1354 68.9299 98.8582 69.1826 98.5387 69.1825C91.5363 69.1825 84.4997 69.2839 77.4781 69.2839ZM77.4781 62.7027C81.3805 62.7027 85.3056 62.8406 89.2058 62.6665C89.792 62.6064 90.2273 62.4954 90.2273 61.8858C90.1459 58.6465 87.4123 55.9824 84.2401 56.1063C80.4073 55.8688 77.9545 59.104 77.4781 62.7027Z" fill="#9999FF"/>
</svg>
