<svg width="106" height="96" viewBox="0 0 106 96" fill="none" xmlns="http://www.w3.org/2000/svg">
<rect x="0.833496" y="0.650146" width="105" height="95.1998" rx="25" fill="white"/>
<path d="M15.8504 28.4062C16.1444 25.7892 17.349 23.3639 19.2484 21.5651C21.1477 19.7663 23.6175 18.7116 26.2149 18.5903H71.8744C73.5113 18.7271 75.0978 19.2305 76.5192 20.0641C77.9406 20.8977 79.1614 22.0408 80.0935 23.4108C80.9333 24.6587 81.5256 26.0601 81.8376 27.5369L95.2557 20.7974C95.3408 20.7542 95.4349 20.7323 95.5301 20.7336C95.6253 20.7348 95.7188 20.7591 95.8028 20.8044C95.8868 20.8497 95.9588 20.9147 96.013 20.994C96.0671 21.0733 96.1017 21.1646 96.1139 21.2602V28.9029C96.1192 29.1583 96.048 29.4093 95.9098 29.6229C95.7715 29.8365 95.5726 30.0027 95.3393 30.0996C82.9948 36.3011 70.6484 42.5101 58.3002 48.7266L95.2557 67.2464C95.4918 67.3293 95.6989 67.4804 95.8513 67.6809C96.0038 67.8815 96.0951 68.1229 96.1139 68.3753V76.0293C96.1146 76.1457 96.0834 76.2599 96.0237 76.3593C95.964 76.4587 95.8781 76.5393 95.7757 76.5921C95.6733 76.6448 95.5584 76.6676 95.444 76.6579C95.3295 76.6483 95.2199 76.6065 95.1276 76.5373C90.7255 74.2795 86.262 72.1515 81.8934 69.8485C81.5998 70.9181 81.208 71.9574 80.7232 72.953C79.983 74.3326 78.9669 75.5407 77.7397 76.5C76.5125 77.4593 75.1013 78.1487 73.5962 78.5242C72.5891 78.7385 71.5595 78.8238 70.5314 78.7782H27.9758C27.0173 78.7782 26.0533 78.7782 25.1005 78.7048C22.6981 78.3404 20.4842 77.1752 18.8089 75.3933C17.1336 73.6115 16.0926 71.3147 15.8504 68.8664V61.4607C15.8908 61.1519 16.017 60.8612 16.2144 60.6223C16.4117 60.3835 16.672 60.2064 16.9649 60.1117C24.5544 56.3129 32.1271 52.4802 39.7278 48.6984C32.0714 44.8375 24.4095 40.9879 16.742 37.1496C16.4813 37.0331 16.2595 36.8426 16.1033 36.6013C15.9471 36.3599 15.8631 36.0779 15.8616 35.7893C15.8504 33.3339 15.8114 30.8672 15.8504 28.4062ZM24.3092 28.457C23.8523 29.3884 24.064 30.4665 24.025 31.4712C32.3835 35.6538 40.6806 39.859 49.0224 44.0134C57.2656 39.8741 65.5127 35.7347 73.7634 31.5954C73.7634 30.8447 73.7968 30.0939 73.7634 29.3376C73.6663 28.6615 73.3304 28.044 72.818 27.5998C72.3057 27.1555 71.6516 26.9146 70.9772 26.9217H26.8557C26.33 26.9038 25.8102 27.039 25.3579 27.3111C24.9056 27.5831 24.5397 27.9808 24.3036 28.457H24.3092ZM24.025 65.9143C24.064 66.9303 23.8467 68.0253 24.3315 68.968C24.5749 69.4315 24.9412 69.8171 25.3891 70.0813C25.837 70.3456 26.3487 70.478 26.8669 70.4638H71.0162C71.5054 70.4678 71.9868 70.3397 72.4109 70.0927C72.835 69.8456 73.1864 69.4886 73.429 69.0583C73.9863 68.0705 73.7299 66.8851 73.7856 65.8014C65.5219 61.6696 57.2694 57.47 48.9889 53.3834C40.6416 57.5603 32.3185 61.7373 24.0194 65.9143H24.025Z" fill="black"/>
</svg>
