<svg width="86" height="83" viewBox="0 0 86 83" fill="none" xmlns="http://www.w3.org/2000/svg">
<path d="M45.8334 79.9998H39.7224C36.346 79.9998 33.6113 77.5309 33.6113 74.4826V68.9653H51.9445V74.4826C51.9445 77.5309 49.2098 79.9998 45.8334 79.9998Z" stroke="white" stroke-width="6" stroke-miterlimit="10" stroke-linejoin="round"/>
<path d="M64.1668 38.6214C64.1668 45.5676 60.5429 52.1083 54.3891 56.2766L51.9447 57.9318V68.9663H33.6115V57.9318L31.1671 56.2766C25.0133 52.1083 21.3894 45.5676 21.3894 38.6214C21.3894 27.9566 30.9654 19.311 42.7781 19.311C54.5907 19.311 64.1668 27.9566 64.1668 38.6214Z" stroke="white" stroke-width="6" stroke-miterlimit="10" stroke-linejoin="round"/>
<path d="M42.7764 11.0345V0" stroke="white" stroke-width="6" stroke-miterlimit="10" stroke-linejoin="round"/>
<path d="M21.1748 19.1142L12.5308 11.3101" stroke="white" stroke-width="6" stroke-miterlimit="10" stroke-linejoin="round"/>
<path d="M64.3794 19.1142L73.0235 11.3101" stroke="white" stroke-width="6" stroke-miterlimit="10" stroke-linejoin="round"/>
<path d="M12.2221 38.6196H0" stroke="white" stroke-width="6" stroke-miterlimit="10" stroke-linejoin="round"/>
<path d="M73.3333 38.6196H85.5554" stroke="white" stroke-width="6" stroke-miterlimit="10" stroke-linejoin="round"/>
</svg>
