<svg width="120" height="120" viewBox="0 0 120 120" fill="none" xmlns="http://www.w3.org/2000/svg">
<path d="M7.5 45.5C7.5 32.1988 7.5 25.5481 10.0886 20.4677C12.3656 15.9989 15.9989 12.3656 20.4677 10.0886C25.5481 7.5 32.1988 7.5 45.5 7.5H74.5C87.8012 7.5 94.4519 7.5 99.5323 10.0886C104.001 12.3656 107.634 15.9989 109.911 20.4677C112.5 25.5481 112.5 32.1988 112.5 45.5V74.5C112.5 87.8012 112.5 94.4519 109.911 99.5323C107.634 104.001 104.001 107.634 99.5323 109.911C94.4519 112.5 87.8012 112.5 74.5 112.5H45.5C32.1988 112.5 25.5481 112.5 20.4677 109.911C15.9989 107.634 12.3656 104.001 10.0886 99.5323C7.5 94.4519 7.5 87.8012 7.5 74.5V45.5Z" fill="#49021F"/>
<path d="M43.4703 38.2331V84.2522C43.4703 84.7342 43.259 84.9751 42.8365 84.9747H34.3133C33.9371 84.9747 33.7494 84.7339 33.75 84.2522V38.2331C33.75 37.8482 33.9613 37.6555 34.3838 37.6551H42.9068C43.2301 37.608 43.5163 37.9015 43.4703 38.2331Z" fill="#FF3366"/>
<path d="M68.6871 85.6969C65.445 85.7475 62.2326 85.0565 59.2836 83.6741C53.0227 80.7021 50.3022 74.1245 50.3029 67.3471C50.2488 60.5863 53.8295 54.1445 59.6711 50.9477C63.7035 48.6568 68.4467 48.0748 72.9837 48.4915V34.2595C72.9837 33.9231 73.1247 33.7538 73.4064 33.7538H82.2814C82.524 33.7182 82.7387 33.9384 82.7042 34.1872V76.8832C82.7042 78.6448 82.8787 80.4002 82.9859 82.1569C83.0032 82.4571 82.8295 82.7538 82.5632 82.8794C80.2736 83.8588 77.8888 84.5853 75.4491 85.0466C73.2184 85.4689 70.9554 85.6866 68.6871 85.6969ZM72.9837 76.7387V57.0162C66.5794 55.2368 60.3041 60.1264 60.3049 66.9136C60.1501 74.0216 66.4878 78.6872 72.9837 76.7387Z" fill="#FF3366"/>
</svg>
