<svg width="40" height="40" viewBox="0 0 40 40" fill="none" xmlns="http://www.w3.org/2000/svg">
<path d="M11.5996 0.5H28.4004C34.5239 0.500211 39.4998 5.47606 39.5 11.5996V28.4004C39.4999 31.3442 38.3306 34.1675 36.249 36.249C34.1675 38.3306 31.3442 39.4999 28.4004 39.5H11.5996C5.47606 39.4998 0.500211 34.5239 0.5 28.4004V11.5996C0.500104 8.65585 1.66941 5.83254 3.75098 3.75098C5.83254 1.66941 8.65585 0.500104 11.5996 0.5ZM11.2002 3.5C9.15803 3.5 7.19891 4.31085 5.75488 5.75488C4.31085 7.19891 3.5 9.15803 3.5 11.2002V28.7998C3.5 33.0559 6.94405 36.5 11.2002 36.5H28.7998C30.842 36.5 32.8011 35.6891 34.2451 34.2451C35.6891 32.8011 36.5 30.842 36.5 28.7998V11.2002C36.5 6.94405 33.0559 3.5 28.7998 3.5H11.2002ZM20 10.5C22.5196 10.5 24.9362 11.5006 26.7178 13.2822C28.4994 15.0638 29.5 17.4804 29.5 20C29.5 22.5196 28.4994 24.9362 26.7178 26.7178C24.9362 28.4994 22.5196 29.5 20 29.5C17.4804 29.5 15.0638 28.4994 13.2822 26.7178C11.5006 24.9362 10.5 22.5196 10.5 20C10.5 17.4804 11.5006 15.0638 13.2822 13.2822C15.0638 11.5006 17.4804 10.5 20 10.5ZM20 13.5C18.2761 13.5 16.6223 14.1843 15.4033 15.4033C14.1843 16.6223 13.5 18.2761 13.5 20C13.5 21.7239 14.1843 23.3777 15.4033 24.5967C16.6223 25.8157 18.2761 26.5 20 26.5C21.7239 26.5 23.3777 25.8157 24.5967 24.5967C25.8157 23.3777 26.5 21.7239 26.5 20C26.5 18.2761 25.8157 16.6223 24.5967 15.4033C23.3777 14.1843 21.7239 13.5 20 13.5ZM30.5 7.5C31.0304 7.5 31.539 7.71087 31.9141 8.08594C32.2891 8.46101 32.5 8.96957 32.5 9.5C32.5 10.0304 32.2891 10.539 31.9141 10.9141C31.539 11.2891 31.0304 11.5 30.5 11.5C29.9696 11.5 29.461 11.2891 29.0859 10.9141C28.7109 10.539 28.5 10.0304 28.5 9.5C28.5 8.96957 28.7109 8.46101 29.0859 8.08594C29.461 7.71087 29.9696 7.5 30.5 7.5Z" fill="white" stroke="white"/>
</svg>
