<svg width="120" height="120" viewBox="0 0 120 120" fill="none" xmlns="http://www.w3.org/2000/svg">
<path d="M1.32001 1.32007H118.68V118.681H1.32001V1.32007Z" fill="#F0DB4F"/>
<path d="M109.075 90.6901C108.216 85.336 104.724 80.8388 94.3828 76.6454C90.7903 74.9944 86.7853 73.8123 85.5919 71.0898C85.1681 69.5054 85.1119 68.6129 85.38 67.6538C86.1497 64.5413 89.865 63.571 92.8097 64.4635C94.7062 65.0991 96.5016 66.5607 97.5844 68.8923C102.649 65.6129 102.638 65.6344 106.175 63.3807C104.88 61.3735 104.189 60.4473 103.342 59.5885C100.296 56.1863 96.1453 54.4341 89.5078 54.5682L86.0503 55.0154C82.7372 55.8526 79.5797 57.5916 77.7281 59.9232C72.1725 66.2269 73.7569 77.2594 80.5172 81.7998C87.1772 86.7985 96.9609 87.9357 98.2106 92.6101C99.4266 98.3326 94.005 100.185 88.6162 99.5269C84.645 98.701 82.4362 96.6826 80.0484 93.0123C75.6534 95.5557 75.6534 95.5557 71.1347 98.1544C72.2062 100.497 73.3322 101.558 75.1284 103.587C83.6297 112.21 104.903 111.787 108.719 98.7348C108.874 98.2866 109.901 95.2979 109.075 90.6901ZM65.1206 55.2591H54.1434L54.0984 83.6391C54.0984 89.6748 54.4106 95.2079 53.4291 96.9038C51.8231 100.239 47.6616 99.826 45.765 99.1791C43.8347 98.2304 42.8531 96.8813 41.7159 94.9744C41.4037 94.4269 41.1694 94.0032 41.0906 93.9704L32.1656 99.436C33.6497 102.482 35.8359 105.126 38.6362 106.843C42.8194 109.354 48.4416 110.124 54.3216 108.774C58.1484 107.659 61.4503 105.35 63.1791 101.835C65.6784 97.2273 65.1422 91.6501 65.1197 85.4813C65.1759 75.4173 65.1206 65.3551 65.1206 55.2591Z" fill="#323330"/>
</svg>
