<svg width="95" height="95" viewBox="0 0 95 95" fill="none" xmlns="http://www.w3.org/2000/svg">
<path d="M62.8154 14.2659C56.323 14.2659 51.0597 19.3809 51.0597 25.6904C51.0597 31.9999 56.323 37.1149 62.8154 37.1149C69.3078 37.1149 74.5712 31.9999 74.5712 25.6904C74.5712 19.3809 69.3082 14.2659 62.8154 14.2659ZM81.7572 57.0847C81.7572 56.227 81.19 55.6452 80.276 55.6452C79.362 55.6452 78.7948 56.1964 78.7948 57.0847V88.9997H46.4903V57.0847C46.4903 56.227 45.9231 55.6452 45.0091 55.6452C44.1265 55.6452 43.5279 56.1964 43.5279 57.0847V88.9997H33.2533V54.2057C33.2533 46.3343 39.8718 39.9328 47.9401 39.9328H50.9025L59.538 52.9804L60.5781 43.2099L59.1597 39.9019H65.526L64.1077 43.2099L65.2106 53.0415L73.8465 39.9328H77.3132C85.4129 39.9328 92 46.3648 92 54.2057V89H81.7254V57.085L81.7572 57.0847ZM19.9524 8C29.2999 8 36.9048 15.3906 36.9048 24.4747C36.9048 33.5588 29.2999 40.9494 19.9524 40.9494C10.6049 40.9494 3 33.5588 3 24.4747C3 15.3906 10.6049 8 19.9524 8ZM7.41505 18.1594H12.0024C12.38 16.4615 12.9101 14.8926 13.5818 13.5276C13.8993 12.8827 14.243 12.2972 14.6081 11.7693C11.5048 13.0063 8.95348 15.2866 7.41505 18.1594ZM5.8254 24.4747C5.8254 25.8092 6.026 27.0983 6.39295 28.3188H11.5726C11.4147 27.0757 11.3325 25.7869 11.3325 24.4747C11.3325 23.2587 11.4041 22.0632 11.5398 20.9052H6.31208C5.9967 22.044 5.8254 23.2401 5.8254 24.4747ZM19.9524 37.7458C21.8295 37.7458 23.8528 35.1884 24.9417 31.0646H14.9627C16.0519 35.1884 18.0753 37.7458 19.9524 37.7458ZM25.4859 28.3188C25.6526 27.1193 25.7466 25.8339 25.7466 24.4747C25.7466 23.2192 25.6671 22.0258 25.5237 20.9052H14.3814C14.238 22.0258 14.1586 23.2192 14.1586 24.4747C14.1586 25.8339 14.2525 27.1193 14.4192 28.3188H25.4859ZM34.0794 24.4747C34.0794 23.2401 33.9081 22.044 33.592 20.9052H28.3643C28.5003 22.0632 28.5716 23.2587 28.5716 24.4747C28.5716 25.7869 28.4893 27.0757 28.3315 28.3188H33.5111C33.8788 27.0983 34.0794 25.8092 34.0794 24.4747ZM19.9524 11.2036C18.0343 11.2036 15.9643 13.8756 14.8939 18.1594H25.0113C23.9404 13.8756 21.8705 11.2036 19.9524 11.2036ZM25.2966 11.7689C25.6618 12.2972 26.0054 12.8824 26.3229 13.5273C26.9947 14.8926 27.5248 16.4611 27.9023 18.1591H32.4897C30.9513 15.2866 28.4 13.0063 25.2966 11.7689ZM32.3414 31.0646H27.842C27.469 32.6575 26.9587 34.1303 26.3229 35.4218C26.0054 36.0667 25.6618 36.6523 25.2966 37.1802C28.3007 35.9826 30.7899 33.8087 32.3414 31.0646ZM14.6081 37.1805C14.243 36.6523 13.8993 36.0671 13.5818 35.4222C12.9461 34.1306 12.4358 32.6578 12.0628 31.0649H7.56338C9.11488 33.8087 11.604 35.9826 14.6081 37.1805Z" fill="white"/>
</svg>
