<svg width="50" height="40" viewBox="0 0 50 40" fill="none" xmlns="http://www.w3.org/2000/svg">
<path d="M45 0C46.3749 9.06195e-07 47.5523 0.489909 48.5322 1.46973C49.5122 2.44973 50.0017 3.62667 50 5V35C50 36.375 49.5106 37.5522 48.5322 38.5322C47.5539 39.5122 46.3767 40.0017 45 40H5C3.625 40 2.44806 39.5106 1.46973 38.5322C0.491575 37.5539 0.00166741 36.3765 0 35V5C0 3.625 0.489727 2.44806 1.46973 1.46973C2.44973 0.491393 3.62667 0.00166667 5 0H45ZM5 35H45V10L26.3125 21.6875C26.1042 21.8125 25.8856 21.9064 25.6572 21.9697C25.429 22.033 25.2099 22.0642 25 22.0625C24.79 22.0608 24.5714 22.0297 24.3447 21.9697C24.1182 21.9097 23.8991 21.8158 23.6875 21.6875L5 10V35ZM25 17.5L45 5H5L25 17.5Z" fill="white"/>
<path d="M45 0C46.3749 9.06195e-07 47.5523 0.489909 48.5322 1.46973C49.5122 2.44973 50.0017 3.62667 50 5V35C50 36.375 49.5106 37.5522 48.5322 38.5322C47.5539 39.5122 46.3767 40.0017 45 40H5C3.625 40 2.44806 39.5106 1.46973 38.5322C0.491575 37.5539 0.00166741 36.3765 0 35V5C0 3.625 0.489727 2.44806 1.46973 1.46973C2.44973 0.491393 3.62667 0.00166667 5 0H45ZM5 35H45V10L26.3125 21.6875C26.1042 21.8125 25.8856 21.9064 25.6572 21.9697C25.429 22.033 25.2099 22.0642 25 22.0625C24.79 22.0608 24.5714 22.0297 24.3447 21.9697C24.1182 21.9097 23.8991 21.8158 23.6875 21.6875L5 10V35ZM25 17.5L45 5H5L25 17.5Z" stroke="white"/>
</svg>
