<svg width="54" height="67" viewBox="0 0 54 67" fill="none" xmlns="http://www.w3.org/2000/svg">
<path d="M27 36.375C32.1777 36.375 36.375 32.1777 36.375 27C36.375 21.8223 32.1777 17.625 27 17.625C21.8223 17.625 17.625 21.8223 17.625 27C17.625 32.1777 21.8223 36.375 27 36.375Z" stroke="white" stroke-width="4" stroke-linecap="round" stroke-linejoin="round"/>
<path d="M27 2C20.3696 2 14.0107 4.63392 9.32233 9.32233C4.63392 14.0107 2 20.3696 2 27C2 32.9125 3.25625 36.7812 6.6875 41.0625L27 64.5L47.3125 41.0625C50.7438 36.7812 52 32.9125 52 27C52 20.3696 49.3661 14.0107 44.6777 9.32233C39.9893 4.63392 33.6304 2 27 2Z" stroke="white" stroke-width="4" stroke-linecap="round" stroke-linejoin="round"/>
</svg>
