<svg width="120" height="120" viewBox="0 0 120 120" fill="none" xmlns="http://www.w3.org/2000/svg">
<path d="M7.5 45.5C7.5 32.1988 7.5 25.5481 10.0886 20.4677C12.3656 15.9989 15.9989 12.3656 20.4677 10.0886C25.5481 7.5 32.1988 7.5 45.5 7.5H74.5C87.8012 7.5 94.4519 7.5 99.5323 10.0886C104.001 12.3656 107.634 15.9989 109.911 20.4677C112.5 25.5481 112.5 32.1988 112.5 45.5V74.5C112.5 87.8012 112.5 94.4519 109.911 99.5323C107.634 104.001 104.001 107.634 99.5323 109.911C94.4519 112.5 87.8012 112.5 74.5 112.5H45.5C32.1988 112.5 25.5481 112.5 20.4677 109.911C15.9989 107.634 12.3656 104.001 10.0886 99.5323C7.5 94.4519 7.5 87.8012 7.5 74.5V45.5Z" fill="#001E36"/>
<path d="M62.6425 84.8253H34.8901C34.4204 84.8253 34.1856 84.5604 34.1858 84.0306V38.1559C34.1339 37.7827 34.456 37.4523 34.8199 37.5057H43.4133C43.6963 37.4648 43.9456 37.7258 43.9063 38.0115V75.7227H64.1219C64.5444 75.7227 64.7088 75.9394 64.6149 76.3729L63.3471 84.1751C63.3361 84.568 63.0137 84.8213 62.6425 84.8253Z" fill="#31A8FF"/>
<path d="M69.6931 48.8697H77.3709C77.7943 48.8735 78.1744 49.1734 78.2865 49.5922C78.8492 50.8735 78.9185 52.4187 78.9206 53.8021C80.2372 52.2297 81.825 50.9195 83.6044 49.9372C85.5131 48.8295 87.6768 48.2681 89.8694 48.3117C90.2333 48.2583 90.5555 48.5886 90.5035 48.9619V57.7033C90.5035 58.0408 90.2678 58.209 89.7992 58.209C86.5494 57.979 81.4898 58.7665 79.1285 61.3877V84.1169C79.1285 84.5504 78.9406 84.7671 78.5649 84.7671H70.3271C69.9225 84.8267 69.5655 84.4531 69.6226 84.0446V59.3649C69.6226 56.0579 69.6925 52.6514 69.2001 49.3755C69.1242 49.0741 69.4057 48.7937 69.6931 48.8697Z" fill="#31A8FF"/>
</svg>
