<svg width="120" height="120" viewBox="0 0 120 120" fill="none" xmlns="http://www.w3.org/2000/svg">
<path fill-rule="evenodd" clip-rule="evenodd" d="M82.5356 40.1362C84.0403 44.489 85.1241 48.9328 85.4803 53.5387C85.9228 59.2528 85.7203 64.9265 84.5156 70.5469C84.4828 70.7015 84.4134 70.8469 84.3619 70.9969C83.9841 70.9978 83.5987 70.9509 83.2294 71.0081C80.1084 71.4984 76.9903 72.0065 73.8722 72.5119C70.6491 73.034 67.4212 73.5356 64.2037 74.0934C63.0637 74.2903 61.6528 74.055 61.1925 75.6319C61.1794 75.675 61.0481 75.6825 60.9722 75.7068L61.1278 66.284L60.9694 43.5478L62.4712 43.29C64.9275 42.8878 67.3837 42.48 69.8419 42.089C72.7753 41.6231 75.7116 41.1703 78.6469 40.7156C79.9416 40.514 81.2381 40.3294 82.5356 40.1362Z" fill="#439934"/>
<path fill-rule="evenodd" clip-rule="evenodd" d="M57.8709 103.176C56.2866 101.813 54.6469 100.511 53.1281 99.0786C44.9559 91.3705 38.9784 82.2983 36.0347 71.3605C35.2237 68.3502 34.6828 65.2911 34.5094 62.1805C34.3875 60.0036 34.2112 57.8071 34.365 55.6415C34.7747 49.8815 35.6072 44.1768 37.2966 38.6286L37.3894 38.4993C37.5534 38.7177 37.7897 38.9108 37.8731 39.1574C39.5222 44.0136 41.1591 48.8736 42.7875 53.7365C47.9044 69.0177 53.0147 84.3027 58.14 99.5802C58.2403 99.8783 58.5 100.123 58.6866 100.392L57.8709 103.176Z" fill="#45A538"/>
<path fill-rule="evenodd" clip-rule="evenodd" d="M82.5356 40.1363C81.2381 40.3294 79.9406 40.5141 78.6459 40.7138C75.7106 41.1684 72.7744 41.6213 69.8409 42.0872C67.3828 42.4781 64.9266 42.8859 62.4703 43.2881L60.9684 43.5459L60.9572 42.5663C60.9075 41.7609 60.8222 40.9566 60.8128 40.1513C60.7481 35.0156 60.7078 29.88 60.6441 24.7444C60.6047 21.5297 60.5456 18.3159 60.48 15.1022C60.4397 13.1053 60.3966 11.1075 60.3066 9.11345C60.2578 8.04188 60.0853 6.97595 60.015 5.90438C59.9756 5.28845 60.03 4.66782 60.0422 4.04907C60.8081 5.53313 61.5572 7.02845 62.3447 8.50126C63.5888 10.83 65.5706 12.5456 67.3547 14.4178C74.4075 21.8166 79.4147 30.4191 82.5356 40.1363Z" fill="#46A037"/>
<path fill-rule="evenodd" clip-rule="evenodd" d="M60.9713 75.7059C61.0472 75.6815 61.1794 75.674 61.1916 75.6309C61.6519 74.054 63.0628 74.2893 64.2028 74.0924C67.4203 73.5356 70.6481 73.0331 73.8712 72.5109C76.9894 72.0056 80.1075 71.4974 83.2284 71.0071C83.5978 70.949 83.9831 70.9968 84.3609 70.9959C83.7778 73.0771 83.3184 75.2034 82.5788 77.2274C81.7388 79.5234 80.7225 81.764 79.6434 83.9606C78.028 87.2368 76.0286 90.3094 73.6875 93.1134C71.8884 95.2771 69.8831 97.2768 67.8731 99.2521C66.7622 100.344 65.4525 101.234 64.2338 102.216L63.9178 102L62.7797 101.027L61.6022 98.4459C60.7979 95.4351 60.3591 92.3384 60.2953 89.2228L60.3169 88.6968L60.4772 86.4224C60.5306 85.6462 60.6019 84.8709 60.6347 84.0928C60.7556 81.2971 60.8606 78.5015 60.9713 75.7059Z" fill="#409433"/>
<path fill-rule="evenodd" clip-rule="evenodd" d="M60.9713 75.7059C60.8606 78.5015 60.7556 81.2971 60.6366 84.0937C60.6038 84.8718 60.5325 85.6471 60.4791 86.4234L59.7619 86.6943C58.1691 82.005 56.5753 77.3653 55.0163 72.7134C52.4381 65.0175 49.8909 57.3093 47.3166 49.6115C45.2373 43.3982 43.1435 37.1898 41.0353 30.9862C40.9369 30.6956 40.6538 30.4687 40.4569 30.2118L45.0469 21.7725C45.2044 22.0462 45.4125 22.3021 45.5119 22.5965C47.6377 28.8798 49.7527 35.1666 51.8569 41.4571C54.5906 49.6415 57.3075 57.8325 60.0394 66.0178C60.1481 66.345 60.3281 66.6468 60.4997 67.0134L61.1278 66.2821L60.9713 75.7059Z" fill="#4FAA41"/>
<path fill-rule="evenodd" clip-rule="evenodd" d="M40.4578 30.2129C40.6547 30.4698 40.9369 30.6966 41.0363 30.9873C43.1445 37.1908 45.2382 43.3993 47.3175 49.6126C49.8919 57.3104 52.4391 65.0185 55.0172 72.7144C56.5753 77.3654 58.1691 82.006 59.7628 86.6954L60.48 86.4244L60.3197 88.6988L60.1744 89.2229C59.925 91.7129 59.715 94.2085 59.4113 96.6929C59.2584 97.9379 58.9341 99.1604 58.6875 100.393C58.5019 100.124 58.2413 99.8794 58.1409 99.5813C53.0156 84.3029 47.9053 69.0188 42.7884 53.7376C41.1606 48.8744 39.5224 44.0147 37.8741 39.1585C37.7906 38.912 37.5553 38.7188 37.3903 38.5004L40.4578 30.2129Z" fill="#4AA73C"/>
<path fill-rule="evenodd" clip-rule="evenodd" d="M61.1269 66.283L60.4987 67.0143C60.3272 66.6477 60.1472 66.3449 60.0384 66.0186C57.3075 57.8333 54.5897 49.6424 51.8559 41.458C49.7517 35.1675 47.6367 28.8806 45.5109 22.5974C45.4125 22.303 45.2044 22.0462 45.0459 21.7733L50.7225 14.3062C50.9016 14.5452 51.1566 14.758 51.2494 15.0271C52.8253 19.6405 54.3872 24.2596 55.9397 28.8815C57.39 33.1977 58.8187 37.5205 60.2859 41.8311C60.3844 42.1199 60.7266 42.3243 60.9553 42.568L60.9666 43.5477C61.0209 51.1246 61.0744 58.7043 61.1269 66.283Z" fill="#57AE47"/>
<path fill-rule="evenodd" clip-rule="evenodd" d="M60.9572 42.5662C60.7284 42.3225 60.3862 42.1181 60.2878 41.8294C58.8206 37.5187 57.3919 33.1959 55.9416 28.8797C54.3891 24.2578 52.8272 19.6397 51.2512 15.0253C51.1584 14.7562 50.9034 14.5434 50.7244 14.3044C52.5703 12.4969 54.3591 10.6247 56.2791 8.90061C57.9862 7.36873 59.3587 5.72623 59.4216 3.30561C59.4244 3.20529 59.4769 3.10498 59.5575 2.82373L60.044 4.04811C60.0319 4.66779 59.9765 5.28748 60.0169 5.90342C60.0872 6.97498 60.2597 8.04092 60.3084 9.11248C60.3984 11.1065 60.4416 13.1044 60.4819 15.1012C60.5466 18.315 60.6056 21.5287 60.6459 24.7434C60.7087 29.879 60.75 35.0147 60.8147 40.1503C60.8222 40.9575 60.9066 41.7609 60.9572 42.5662Z" fill="#60B24F"/>
<path fill-rule="evenodd" clip-rule="evenodd" d="M58.6856 100.392C58.9322 99.1593 59.2566 97.9358 59.4094 96.6918C59.7141 94.2083 59.9231 91.7118 60.1725 89.2218L60.2344 89.2124L60.2962 89.2227C60.36 92.3384 60.7988 95.4351 61.6031 98.4458C61.4381 98.6633 61.2047 98.8574 61.1175 99.103C60.4359 101.025 59.7937 102.962 59.1084 104.884C59.0147 105.146 58.7541 105.351 58.5703 105.581L57.87 103.176L58.6856 100.392Z" fill="#A9AA88"/>
<path fill-rule="evenodd" clip-rule="evenodd" d="M58.5713 105.582C58.755 105.351 59.0166 105.147 59.1094 104.885C59.7947 102.963 60.4378 101.027 61.1184 99.104C61.2056 98.8583 61.4381 98.6643 61.6041 98.4468L62.7806 101.029C62.5481 101.359 62.2275 101.656 62.0981 102.023L59.8444 108.641C59.7516 108.906 59.4347 109.094 59.2228 109.318L58.5713 105.582Z" fill="#B6B598"/>
<path fill-rule="evenodd" clip-rule="evenodd" d="M59.2228 109.317C59.4356 109.094 59.7516 108.906 59.8444 108.64L62.0981 102.023C62.2266 101.656 62.5481 101.358 62.7806 101.028L63.9197 102C63.3694 102.544 63.0637 103.172 63.2475 103.966L62.9016 105.098C62.7441 105.293 62.5162 105.461 62.4384 105.683C61.6519 107.936 60.9009 110.201 60.1087 112.454C60.0084 112.74 59.73 112.964 59.5331 113.215C59.4309 111.915 59.3269 110.618 59.2228 109.317Z" fill="#C2C1A7"/>
<path fill-rule="evenodd" clip-rule="evenodd" d="M59.5341 113.215C59.73 112.963 60.0084 112.739 60.1097 112.454C60.9019 110.202 61.6528 107.937 62.4394 105.683C62.5172 105.462 62.7441 105.292 62.9025 105.098L62.4253 110.297C62.2978 110.444 62.1131 110.572 62.0522 110.744C61.5131 112.257 61.005 113.782 60.4641 115.295C60.3525 115.607 60.1388 115.882 59.9719 116.174C59.8238 115.98 59.5584 115.792 59.5463 115.59C59.4984 114.802 59.5313 114.007 59.5341 113.215Z" fill="#CECDB7"/>
<path fill-rule="evenodd" clip-rule="evenodd" d="M59.9709 116.174C60.1378 115.882 60.3516 115.606 60.4631 115.295C61.005 113.782 61.5122 112.258 62.0513 110.744C62.1122 110.572 62.2978 110.445 62.4244 110.297L62.4356 113.709L61.2938 116.638L59.9709 116.174Z" fill="#DBDAC7"/>
<path fill-rule="evenodd" clip-rule="evenodd" d="M61.2938 116.639L62.4356 113.71L62.6709 117.175L61.2938 116.639Z" fill="#EBE9DC"/>
<path fill-rule="evenodd" clip-rule="evenodd" d="M63.2475 103.967C63.0637 103.173 63.3684 102.544 63.9197 102.001L64.2356 102.217L63.2475 103.967Z" fill="#CECDB7"/>
<path fill-rule="evenodd" clip-rule="evenodd" d="M60.2962 89.2237L60.2344 89.2134L60.1725 89.2228L60.3178 88.6987L60.2962 89.2237Z" fill="#4FAA41"/>
</svg>
