<svg width="120" height="118" viewBox="0 0 120 118" fill="none" xmlns="http://www.w3.org/2000/svg">
<path d="M110.509 91.2509C103.962 91.0725 98.9623 91.682 94.6878 93.484C93.4735 93.9962 91.5352 94.0105 91.3367 95.532C92.0045 96.2313 92.1085 97.2768 92.6388 98.1372C93.6595 99.7875 95.3823 102.002 96.92 103.162C98.6008 104.431 100.332 105.787 102.133 106.885C105.336 108.837 108.913 109.953 111.997 111.91C113.815 113.064 115.621 114.517 117.394 115.818C118.272 116.462 118.86 117.463 120 117.866V117.681C119.401 116.918 119.246 115.87 118.697 115.074L116.277 112.654C113.911 109.514 110.907 106.755 107.715 104.465C105.169 102.637 99.4708 100.168 98.4091 97.2062L98.2231 97.0201C100.028 96.816 102.141 96.1635 103.807 95.7161C106.606 94.9664 109.107 95.16 111.997 94.414L115.905 93.297V92.553C114.444 91.0544 113.403 89.0702 111.811 87.7137C107.642 84.1652 103.094 80.6195 98.41 77.6623C95.8116 76.0235 92.6016 74.958 89.8477 73.5681C88.9214 73.0998 87.294 72.8565 86.6826 72.0781C85.2355 70.2351 84.4485 67.8981 83.3334 65.7508C80.9972 61.2512 78.7031 56.3376 76.6331 51.6033C75.2213 48.3752 74.2989 45.193 72.5379 42.2969C64.0862 28.4012 54.9897 20.0153 40.8975 11.7716C37.8984 10.0183 34.2878 9.32668 30.4722 8.42046C28.426 8.2974 26.3779 8.17244 24.3308 8.04748C23.0803 7.52664 21.781 5.99751 20.6087 5.25537C15.9402 2.30586 3.96475 -4.10922 0.507755 4.3253C-1.67576 9.6491 3.7711 14.8422 5.71804 17.5408C7.08596 19.4315 8.83639 21.554 9.8132 23.6822C10.4561 25.0815 10.5668 26.4848 11.1172 27.9643C12.4689 31.6101 13.647 35.5765 15.3974 38.9448C16.2817 40.6504 17.2566 42.4457 18.3755 43.97C19.0605 44.9058 20.2366 45.3179 20.4217 46.7621C19.2732 48.3704 19.2074 50.8678 18.5616 52.9054C15.6521 62.0773 16.7501 73.4785 20.9816 80.2665C22.279 82.3518 25.3382 86.8209 29.543 85.1057C33.2213 83.6081 32.4 78.9644 33.4522 74.8683C33.6897 73.9402 33.5438 73.2572 34.0102 72.6352V72.8212L37.3613 79.5215C39.8415 83.5156 44.241 87.6889 47.9708 90.5049C49.9044 91.9653 51.4268 94.4894 53.927 95.3441V95.1571H53.741C53.2564 94.4026 52.4981 94.0897 51.8799 93.483C50.4233 92.055 48.8036 90.2798 47.5997 88.6438C44.2076 84.0393 41.2104 78.9997 38.4793 73.7541C37.1744 71.2482 36.0402 68.4857 34.9412 65.9358C34.5177 64.9533 34.5234 63.4662 33.6401 62.9577C32.4353 64.8255 30.662 66.3365 29.731 68.5419C28.2419 72.0676 28.0502 76.3679 27.4978 80.8265C27.1716 80.9428 27.3166 80.8627 27.1249 81.0115C24.5321 80.3867 23.6221 77.7186 22.6577 75.4283C20.2214 69.638 19.7683 60.3163 21.9127 53.6513C22.4678 51.9257 24.9747 46.496 23.9598 44.902C23.4752 43.3128 21.8764 42.3932 20.9826 41.1789C19.8751 39.6774 18.7705 37.7009 18.0026 35.9667C16.0089 31.4537 15.0779 26.3856 12.9783 21.822C11.9738 19.6404 10.2768 17.4321 8.88313 15.4937C7.34065 13.3446 5.61216 11.762 4.41595 9.16451C3.9905 8.24112 3.41338 6.76255 4.04297 5.81341C4.24329 5.17333 4.52756 4.90623 5.16 4.69733C6.23983 3.86456 9.24658 4.97396 10.3703 5.44043C13.3551 6.68052 15.8467 7.86146 18.3755 9.53654C19.588 10.3416 20.8166 11.8975 22.2837 12.3286H23.9588C26.5792 12.9306 29.5144 12.5147 31.9631 13.2587C36.2901 14.5732 40.1678 16.6194 43.6887 18.8429C54.4164 25.6176 63.1886 35.2598 69.1887 46.7631C70.1541 48.6156 70.5719 50.3823 71.4218 52.3473C73.137 56.3089 75.2976 60.385 77.0042 64.2598C78.7078 68.1251 80.3677 72.0256 82.7753 75.2423C84.0412 76.9326 88.9291 77.8398 91.1517 78.7794C92.7085 79.4366 95.2602 80.1234 96.7359 81.0115C99.5528 82.7114 102.283 84.7347 104.926 86.5967C106.245 87.5268 110.306 89.5691 110.509 91.2509ZM27.309 20.3358C25.9439 20.3101 24.9786 20.4846 23.9579 20.7069V20.8929H24.1439C24.7954 22.2303 25.9449 23.0926 26.749 24.244C27.3691 25.548 27.9901 26.8501 28.6111 28.1522L28.7961 27.9681C29.9494 27.1544 30.4769 25.8561 30.4702 23.872C30.0085 23.3864 29.9408 22.7778 29.5402 22.1979C29.0098 21.4242 27.9805 20.9845 27.309 20.3358Z" fill="#00618A"/>
</svg>
