<svg width="80" height="80" viewBox="0 0 80 80" fill="none" xmlns="http://www.w3.org/2000/svg">
<path d="M39.9918 0L36.5132 0.15625L33.0592 0.600329L29.6464 1.36513L26.324 2.41776L23.0921 3.75L20 5.3454L17.0559 7.22862L14.2928 9.35033L11.7188 11.7105L9.36678 14.2928L7.22862 17.0559L5.36184 19.9918L3.75 23.0921L2.41776 26.3076L1.36513 29.6546L0.600329 33.051L0.15625 36.5214L0 40L0.15625 43.4786L0.600329 46.949L1.36513 50.3454L2.41776 53.676L3.75 56.9079L5.36184 60.0082L7.22862 62.9441L9.36678 65.7072L11.7188 68.2895L14.2928 70.6497L17.0559 72.7714L20 74.6382L23.0921 76.25L26.324 77.5822L29.6464 78.6349L33.0592 79.3997L36.5132 79.8438L39.9918 80L43.4868 79.8438L46.9408 79.3997L50.3536 78.6349L53.676 77.5822L56.9079 76.25L60 74.6382L62.9441 72.7714L65.7072 70.6497L68.2812 68.2895L70.6332 65.7072L72.7549 62.9441L74.6382 60.0082L76.25 56.9079L77.5822 53.676L78.6266 50.3454L79.3832 46.949L79.8438 43.4786L80 40L79.8438 36.5214L79.3832 33.051L78.6266 29.6546L77.5822 26.3076L76.25 23.0921L74.6382 19.9918L72.7549 17.0559L70.6332 14.2928L68.2812 11.7105L65.7072 9.35033L62.9441 7.22862L60 5.3454L56.9079 3.75L53.676 2.41776L50.3536 1.36513L46.9408 0.600329L43.4868 0.15625L39.9918 0ZM47.0559 5.41941L49.9424 6.13487L52.7549 7.08882L55.4934 8.28125L58.1003 9.70395L60.5839 11.3322L62.9276 13.1661L65.1069 15.1891L67.097 17.3931L68.9062 19.7697L63.3964 21.0773L57.8207 22.1135L56.5132 19.0543L55 16.0773L53.2895 13.2155L51.3898 10.477L49.3174 7.87829L47.0559 5.41941ZM36.5954 6.48849L35.477 12.0724L34.5477 17.7056L33.8322 23.3635L29.5477 23.0428L25.2961 22.5658L21.0444 21.9326L22.6727 19.1941L24.523 16.6201L26.5872 14.1941L28.8322 11.9655L31.2582 9.90954L33.8569 8.08388L36.5954 6.48849ZM41.4145 6.54605L43.8405 8.85691L46.0855 11.3405L48.1332 13.9967L49.9753 16.8092L51.6201 19.7286L53.0181 22.7714L48.2072 23.2237L43.3799 23.4786L38.5444 23.5197L39.2928 17.8207L40.2467 12.1546L41.4145 6.54605ZM27.2862 7.07237L24.6217 9.46546L22.1628 12.0724L19.9507 14.8849L17.9523 17.8618L16.2253 21.0033L11.0938 19.7697L12.903 17.3931L14.9095 15.1809L17.0806 13.1579L19.4408 11.3158L21.9243 9.67105L24.5477 8.25658L27.2862 7.07237ZM8.56086 23.9556L14.3503 25.3947L13.2401 28.8816L12.4342 32.4342L11.949 36.0444L11.7599 39.6793L8.25658 38.9638L4.76151 38.1743L5.04112 35.2138L5.55921 32.3026L6.33224 29.4408L7.3273 26.6447L8.56086 23.9556ZM71.4391 23.9556L72.6727 26.6447L73.6678 29.4408L74.4408 32.3026L74.9589 35.2138L75.2385 38.1743L70.5839 39.2105L65.8799 40.1151L61.1595 40.8553L61.0938 37.2615L60.7648 33.6842L60.1809 30.1316L59.3339 26.6365L63.3964 25.8882L67.4342 24.9918L71.4391 23.9556ZM19.0049 26.3569L23.7829 27.1135L28.5773 27.6727L33.3964 28.051L33.1168 32.7549L32.9605 37.4753V42.1875L27.4424 41.8257L21.9408 41.2664L16.4803 40.5016L16.5543 37.6151L16.8421 34.7368L17.352 31.8832L18.0839 29.0789L19.0049 26.3569ZM54.6382 27.3191L55.5016 30.7895L56.1102 34.3174L56.4145 37.8783L56.4474 41.4474L50.1974 42.0066L43.9391 42.3026L37.6645 42.3273V37.6234L37.8207 32.9276L38.1086 28.2237L43.6266 28.1743L49.1447 27.8865L54.6382 27.3191ZM4.84375 43.0181L8.40461 43.8076L11.9984 44.523L12.426 47.426L13.0263 50.3043L13.8405 53.1414L14.8355 55.9046L16.028 58.602L12.4918 57.7714L8.98026 56.8339L7.70559 54.2188L6.63651 51.5296L5.81415 48.75L5.20559 45.9128L4.84375 43.0181ZM75.1562 43.0181L74.7944 45.9128L74.1859 48.75L73.3635 51.5296L72.2944 54.2188L71.0197 56.8339L66.3816 58.0592L61.7105 59.0625L56.9901 59.8931L58.3553 56.4556L59.449 52.9194L60.2878 49.3092L60.8553 45.6579L65.6414 44.926L70.4112 44.0461L75.1562 43.0181ZM16.8421 45.3207L22.2533 46.0362L27.6563 46.5707L33.1003 46.9079L33.3799 51.6283L33.7993 56.3405L34.375 61.028L30.2385 60.7484L26.1102 60.3125L21.9984 59.7368L20.5099 57.0477L19.2434 54.2352L18.2072 51.3322L17.4095 48.3553L16.8421 45.3207ZM56.0362 46.2336L55.5016 49.2105L54.7862 52.1628L53.8651 55.0329L52.7385 57.8618L51.4474 60.6003L47.352 60.9375L43.2484 61.1266L39.1365 61.176L38.5444 56.4803L38.1086 51.7681L37.8207 47.0477L43.898 47.0066L49.9753 46.7352L56.0362 46.2336ZM13.0099 62.7467L16.0855 63.4293L19.1776 64.0214L20.9622 66.4638L22.9112 68.7664L25.0329 70.9293L27.2862 72.9276L24.5806 71.7599L21.9819 70.3536L19.5148 68.7418L17.1793 66.9326L15.0082 64.9178L13.0099 62.7467ZM66.9901 62.7467L64.9918 64.9178L62.8207 66.9326L60.4852 68.7418L58.0181 70.3372L55.4194 71.7434L52.7138 72.9276L49.9178 73.8816L47.0559 74.5806L49.1036 72.3602L51.0115 70.0164L52.7796 67.5576L54.3832 65.0082L58.6102 64.3997L62.8207 63.6431L66.9901 62.7467ZM25.8882 65.0329L30.4934 65.4934L35.0905 65.7812L35.7977 69.6628L36.5954 73.5115L33.6513 71.7763L30.8553 69.7615L28.273 67.5082L25.8882 65.0329ZM48.4293 65.5839L46.2993 68.3882L43.9556 71.028L41.4145 73.4539L40.6003 69.6793L39.8849 65.8882L44.1612 65.8059L48.4293 65.5839Z" fill="white"/>
</svg>
