<svg width="95" height="95" viewBox="0 0 95 95" fill="none" xmlns="http://www.w3.org/2000/svg">
<path d="M22.5625 40.5901L21.0039 42.3243L23.9727 45.241L25.5313 43.5068C26.1992 43.9009 26.9414 44.2162 27.6094 44.295L27.6836 46.6599L31.6914 46.5023L31.6172 44.1374C32.3594 43.9797 33.0273 43.5856 33.6211 43.1914L35.2539 44.8469L38 41.6937L36.3672 40.0383C36.7383 39.3288 37.0352 38.5405 37.1094 37.8311L39.3359 37.7523L39.1875 33.4167L36.9609 33.4955C36.8125 32.7072 36.4414 31.9977 36.0703 31.3671L37.6289 29.6329L34.6602 26.7162L33.1016 28.4505C32.4336 28.0563 31.6914 27.741 31.0234 27.6622L30.9492 25.2973L26.9414 25.455L27.0156 27.8198C26.2734 27.9775 25.6055 28.3716 25.0117 28.7658L23.3789 27.1104L20.6328 30.2635L22.2656 31.9189C21.8945 32.6284 21.5977 33.4167 21.5234 34.1261L19.2969 34.205L19.4453 38.4617L21.6719 38.3829C21.8203 39.25 22.1172 39.9595 22.5625 40.5901ZM29.168 30.2635C32.2109 30.1847 34.6602 32.6284 34.7344 35.8604C34.8086 39.0923 32.5078 41.6937 29.4648 41.7725C26.4219 41.8513 23.9727 39.4077 23.8984 36.1757C23.8242 33.0225 26.1992 30.3423 29.168 30.2635ZM30.2813 54.464L30.207 51.5473L28.0547 51.6261C27.9805 51.4685 27.9805 51.3108 27.9062 51.232L29.4648 49.5766L27.4609 47.527L25.9766 49.1824C25.8281 49.1036 25.6797 49.0248 25.5313 49.0248L25.457 46.7387L22.7109 46.8176L22.7852 49.1036C22.7109 49.1036 22.6367 49.1824 22.4883 49.2613C22.4141 49.2613 22.3398 49.3401 22.3398 49.3401L20.7813 47.7635L18.8516 49.8919L20.4102 51.4685C20.3359 51.6261 20.2617 51.7838 20.2617 51.9414L18.1094 52.0203L18.1836 54.9369L20.3359 54.8581C20.4102 55.0158 20.4844 55.1734 20.4844 55.2523L18.9258 56.9865L20.9297 59.036L22.4883 57.3018C22.6367 57.3806 22.7109 57.3806 22.8594 57.4595L22.9336 59.8243L25.6797 59.7455L25.6055 57.3806C25.6797 57.3806 25.7539 57.3018 25.8281 57.3018C25.9023 57.3018 25.9023 57.3018 25.9766 57.223L27.6094 58.8784L29.5391 56.75L27.9062 55.0946C27.9805 54.9369 28.0547 54.8581 28.0547 54.7005L30.2813 54.464ZM25.7539 54.1486C25.3086 55.0158 24.2695 55.4099 23.4531 54.9369C22.6367 54.464 22.2656 53.3604 22.7109 52.4932C23.1562 51.6261 24.1953 51.232 25.0117 51.705C25.8281 52.1779 26.125 53.2815 25.7539 54.1486ZM19 47.7635L16.3281 45.1622C16.4023 44.9257 16.5508 44.6892 16.625 44.4527L20.2617 44.3739L20.1133 39.5653L16.4766 39.6441C16.4023 39.4077 16.3281 39.1712 16.1797 38.9347L18.6289 36.0968L15.3633 32.786L12.9141 35.6239C12.7656 35.545 12.6172 35.4662 12.4688 35.4662C12.3945 35.4662 12.3203 35.3874 12.1719 35.3086L12.0977 31.5248L7.57031 31.6824L7.64453 35.4662C7.42188 35.545 7.19922 35.6239 6.97656 35.7815L4.37891 33.1802L1.26172 36.6486L3.93359 39.25C3.85937 39.4865 3.71094 39.723 3.63672 39.9595L0 40.0383L0.148438 44.8469L3.85938 44.6892C3.93359 44.9257 4.00781 45.0833 4.15625 45.3198L1.63281 48.2365L4.89844 51.5473L7.42188 48.6306C7.57031 48.7095 7.64453 48.7095 7.71875 48.7883C7.79297 48.7883 7.86719 48.8671 7.94141 48.8671L8.08984 52.8874L12.6172 52.7297L12.4688 48.7883C12.6914 48.7095 12.8398 48.6306 13.0625 48.5518L15.8086 51.232L19 47.7635ZM11.3555 46.5811C9.12891 47.2905 6.67969 45.9505 6.01172 43.5856C5.34375 41.2207 6.60547 38.6194 8.83203 37.9099C11.0586 37.2005 13.5078 38.5405 14.1758 40.9054C14.918 43.2703 13.6562 45.7928 11.3555 46.5811ZM65.9063 13C72.2891 13 77.4844 18.518 77.4844 25.2973C77.4844 32.0766 72.2891 37.5946 65.9063 37.5946C59.5234 37.5946 54.3281 32.0766 54.3281 25.2973C54.3281 18.518 59.5234 13 65.9063 13ZM80.4531 40.7477H54.1055C50.3203 40.7477 46.5352 41.2996 43.7891 45.241C42.6016 47.2117 31.6172 61.8739 31.6172 61.8739H16.1797C13.4336 61.8739 11.1328 64.3176 11.1328 67.2342C11.1328 70.1509 13.4336 72.5946 16.1797 72.5946H33.7695C35.0313 72.5946 36.3672 72.0428 37.2578 71.018L47.5742 57.6959C47.8711 57.3806 48.0938 57.223 48.6133 57.223C49.4297 57.223 50.0977 57.7748 50.0977 58.7996V82.9212H82.0117V59.1937C82.0117 58.3266 82.5313 57.6171 83.4961 57.6171C84.3125 57.6171 84.9805 58.1689 84.9805 59.1937V83H95V56.1194C95 47.6847 88.4688 40.7477 80.4531 40.7477Z" fill="white"/>
</svg>
