<svg width="26" height="26" viewBox="0 0 26 26" fill="none" xmlns="http://www.w3.org/2000/svg">
<g clip-path="url(#clip0_906_1312)">
<mask id="mask0_906_1312" style="mask-type:luminance" maskUnits="userSpaceOnUse" x="0" y="0" width="26" height="26">
<path d="M0.69043 0.7229H25.6904V25.7229H0.69043V0.7229Z" fill="white"/>
</mask>
<g mask="url(#mask0_906_1312)">
<path d="M13.1904 0.7229C13.4667 0.7229 13.7316 0.832647 13.927 1.028C14.1223 1.22335 14.2321 1.4883 14.2321 1.76457V3.8479C14.2321 4.12417 14.1223 4.38912 13.927 4.58447C13.7316 4.77982 13.4667 4.88957 13.1904 4.88957C12.9142 4.88957 12.6492 4.77982 12.4539 4.58447C12.2585 4.38912 12.1488 4.12417 12.1488 3.8479V1.76457C12.1488 1.4883 12.2585 1.22335 12.4539 1.028C12.6492 0.832647 12.9142 0.7229 13.1904 0.7229ZM0.69043 13.2229C0.69043 12.9466 0.800176 12.6817 0.995527 12.4863C1.19088 12.291 1.45583 12.1812 1.7321 12.1812H3.81543C4.0917 12.1812 4.35665 12.291 4.552 12.4863C4.74735 12.6817 4.8571 12.9466 4.8571 13.2229C4.8571 13.4992 4.74735 13.7641 4.552 13.9595C4.35665 14.1548 4.0917 14.2646 3.81543 14.2646H1.7321C1.45583 14.2646 1.19088 14.1548 0.995527 13.9595C0.800176 13.7641 0.69043 13.4992 0.69043 13.2229ZM22.5654 12.1812C22.2892 12.1812 22.0242 12.291 21.8289 12.4863C21.6335 12.6817 21.5238 12.9466 21.5238 13.2229C21.5238 13.4992 21.6335 13.7641 21.8289 13.9595C22.0242 14.1548 22.2892 14.2646 22.5654 14.2646H24.6488C24.925 14.2646 25.19 14.1548 25.3853 13.9595C25.5807 13.7641 25.6904 13.4992 25.6904 13.2229C25.6904 12.9466 25.5807 12.6817 25.3853 12.4863C25.19 12.291 24.925 12.1812 24.6488 12.1812H22.5654ZM14.2321 22.5979C14.2321 22.3216 14.1223 22.0567 13.927 21.8613C13.7316 21.666 13.4667 21.5562 13.1904 21.5562C12.9142 21.5562 12.6492 21.666 12.4539 21.8613C12.2585 22.0567 12.1488 22.3216 12.1488 22.5979V24.6812C12.1488 24.9575 12.2585 25.2225 12.4539 25.4178C12.6492 25.6132 12.9142 25.7229 13.1904 25.7229C13.4667 25.7229 13.7316 25.6132 13.927 25.4178C14.1223 25.2225 14.2321 24.9575 14.2321 24.6812V22.5979ZM7.29772 19.1156C7.493 19.3109 7.60271 19.5759 7.60271 19.8521C7.60271 20.1283 7.493 20.3932 7.29772 20.5885L5.82585 22.0614C5.72976 22.1609 5.61481 22.2403 5.48773 22.2949C5.36064 22.3495 5.22395 22.3782 5.08564 22.3794C4.94733 22.3806 4.81016 22.3543 4.68214 22.3019C4.55413 22.2495 4.43782 22.1722 4.34002 22.0744C4.24221 21.9765 4.16487 21.8602 4.11249 21.7322C4.06011 21.6042 4.03376 21.467 4.03496 21.3287C4.03616 21.1904 4.0649 21.0537 4.11949 20.9266C4.17408 20.7996 4.25344 20.6846 4.35293 20.5885L5.82585 19.1156C6.02119 18.9203 6.28609 18.8106 6.5623 18.8106C6.83852 18.8106 7.10238 18.9203 7.29772 19.1156ZM22.029 4.38436C22.2243 4.5797 22.334 4.8446 22.334 5.12082C22.334 5.39703 22.2243 5.66193 22.029 5.85728L20.5561 7.33019C20.46 7.42968 20.345 7.50904 20.2179 7.56363C20.0908 7.61822 19.9542 7.64696 19.8158 7.64816C19.6775 7.64936 19.5404 7.62301 19.4124 7.57063C19.2843 7.51825 19.168 7.44091 19.0702 7.3431C18.9724 7.2453 18.8951 7.12899 18.8427 7.00098C18.7903 6.87296 18.764 6.73579 18.7652 6.59748C18.7664 6.45917 18.7951 6.32248 18.8497 6.1954C18.9043 6.06831 18.9836 5.95337 19.0831 5.85728L20.5561 4.38436C20.7514 4.18908 21.0163 4.07937 21.2925 4.07937C21.5687 4.07937 21.8336 4.18908 22.029 4.38436ZM4.35189 4.38436C4.54723 4.18908 4.81213 4.07937 5.08835 4.07937C5.36456 4.07937 5.62946 4.18908 5.8248 4.38436L7.29772 5.85728C7.39954 5.95275 7.48113 6.06772 7.53764 6.19534C7.59416 6.32297 7.62445 6.46065 7.62672 6.60021C7.62898 6.73977 7.60318 6.87836 7.55083 7.00775C7.49849 7.13714 7.42068 7.2547 7.32202 7.35343C7.22335 7.45216 7.10586 7.53006 6.9765 7.58249C6.84715 7.63492 6.70857 7.66083 6.56901 7.65866C6.42945 7.65649 6.29175 7.6263 6.16408 7.56987C6.03642 7.51345 5.92139 7.43194 5.82585 7.33019L4.35189 5.85832C4.15661 5.66298 4.0469 5.39807 4.0469 5.12186C4.0469 4.84565 4.15661 4.5797 4.35189 4.38436ZM19.0831 19.1156C19.2785 18.9203 19.5434 18.8106 19.8196 18.8106C20.0958 18.8106 20.3607 18.9203 20.5561 19.1156L22.029 20.5885C22.1285 20.6846 22.2078 20.7996 22.2624 20.9266C22.317 21.0537 22.3457 21.1904 22.3469 21.3287C22.3481 21.467 22.3218 21.6042 22.2694 21.7322C22.217 21.8602 22.1397 21.9765 22.0419 22.0744C21.9441 22.1722 21.8278 22.2495 21.6998 22.3019C21.5717 22.3543 21.4346 22.3806 21.2963 22.3794C21.1579 22.3782 21.0213 22.3495 20.8942 22.2949C20.7671 22.2403 20.6521 22.1609 20.5561 22.0614L19.0831 20.5885C18.8879 20.3932 18.7782 20.1283 18.7782 19.8521C18.7782 19.5759 18.8879 19.3109 19.0831 19.1156ZM5.89876 13.2229C5.89876 12.2653 6.08737 11.3172 6.45381 10.4325C6.82025 9.54783 7.35735 8.74401 8.03444 8.06691C8.71154 7.38982 9.51536 6.85272 10.4 6.48628C11.2847 6.11984 12.2329 5.93123 13.1904 5.93123C14.148 5.93123 15.0962 6.11984 15.9808 6.48628C16.8655 6.85272 17.6693 7.38982 18.3464 8.06691C19.0235 8.74401 19.5606 9.54783 19.9271 10.4325C20.2935 11.3172 20.4821 12.2653 20.4821 13.2229C20.4821 15.1568 19.7139 17.0114 18.3464 18.3789C16.979 19.7463 15.1243 20.5146 13.1904 20.5146C11.2566 20.5146 9.4019 19.7463 8.03444 18.3789C6.66699 17.0114 5.89876 15.1568 5.89876 13.2229Z" fill="#060606"/>
</g>
</g>
<defs>
<clipPath id="clip0_906_1312">
<rect width="25" height="25" fill="white" transform="translate(0.69043 0.7229)"/>
</clipPath>
</defs>
</svg>
