<svg width="85" height="85" viewBox="0 0 85 85" fill="none" xmlns="http://www.w3.org/2000/svg">
<path d="M24.2856 47.7851V57.6785C24.2856 59.3542 25.6456 60.7142 27.3214 60.7142H31.2526L33.4049 82.2678C33.5628 83.819 34.8681 84.9999 36.4285 84.9999H48.5714C50.1317 84.9999 51.4371 83.819 51.5919 82.2678L53.7442 60.7142H57.6785C59.3542 60.7142 60.7142 59.3542 60.7142 57.6785V47.7851C60.7142 41.5224 55.6203 36.4285 49.3576 36.4285H42.4999H35.6423C29.3796 36.4285 24.2856 41.5224 24.2856 47.7851ZM49.3576 42.4999C52.2719 42.4999 54.6428 44.8708 54.6428 47.7851V54.6428H50.9999C49.4396 54.6428 48.1342 55.8236 47.9794 57.3749L45.824 78.9285H39.1758L37.0235 57.3749C36.8656 55.8236 35.5603 54.6428 33.9999 54.6428H30.3571V47.7851C30.3571 44.8708 32.728 42.4999 35.6423 42.4999H49.3576Z" fill="white"/>
<path d="M30.3572 24.2857C30.3572 30.9825 35.8032 36.4285 42.5 36.4285C49.1968 36.4285 54.6429 30.9825 54.6429 24.2857V21.0466C54.6429 16.1378 50.6479 12.1428 45.7391 12.1428H39.2609C34.3522 12.1428 30.3572 16.1378 30.3572 21.0466V24.2857ZM36.4286 21.0466C36.4286 19.4832 37.6975 18.2143 39.2609 18.2143H45.7391C47.3025 18.2143 48.5715 19.4832 48.5715 21.0466V24.2857C48.5715 27.6341 45.8484 30.3571 42.5 30.3571C39.1516 30.3571 36.4286 27.6341 36.4286 24.2857V21.0466Z" fill="white"/>
<path d="M73.6434 24.2856H66.7857H59.928C58.2523 24.2856 56.8923 25.6456 56.8923 27.3214C56.8923 28.9971 58.2523 30.3571 59.928 30.3571H73.6434C76.5577 30.3571 78.9286 32.728 78.9286 35.6423V42.4999H75.2857C73.7254 42.4999 72.42 43.6808 72.2652 45.2321L70.1098 66.7856H60.7143C59.0386 66.7856 57.6786 68.1456 57.6786 69.8214C57.6786 71.4971 59.0386 72.8571 60.7143 72.8571H72.8572C74.4175 72.8571 75.7229 71.6762 75.8777 70.1249L78.03 48.5714H81.9643C83.64 48.5714 85 47.2114 85 45.5356V35.6423C85 29.3796 79.9061 24.2856 73.6434 24.2856Z" fill="white"/>
<path d="M3.03571 48.5714H6.96696L9.11929 70.1249C9.27714 71.6762 10.5825 72.8571 12.1429 72.8571H24.2857C25.9614 72.8571 27.3214 71.4971 27.3214 69.8214C27.3214 68.1456 25.9614 66.7856 24.2857 66.7856H14.8902L12.7379 45.2321C12.58 43.6808 11.2746 42.4999 9.71429 42.4999H6.07143V35.6423C6.07143 32.728 8.44232 30.3571 11.3566 30.3571H25.072C26.7477 30.3571 28.1077 28.9971 28.1077 27.3214C28.1077 25.6456 26.7477 24.2856 25.072 24.2856H18.2143H11.3566C5.09393 24.2856 0 29.3796 0 35.6423V45.5356C0 47.2114 1.36 48.5714 3.03571 48.5714Z" fill="white"/>
<path d="M78.9285 12.1429V8.90375C78.9285 3.995 74.9335 0 70.0248 0H63.5466C58.6378 0 54.6428 3.995 54.6428 8.90375V12.1429C54.6428 18.8396 60.0889 24.2857 66.7857 24.2857C73.4825 24.2857 78.9285 18.8396 78.9285 12.1429ZM72.8571 12.1429C72.8571 15.4913 70.1341 18.2143 66.7857 18.2143C63.4373 18.2143 60.7143 15.4913 60.7143 12.1429V8.90375C60.7143 7.34036 61.9832 6.07143 63.5466 6.07143H70.0248C71.5882 6.07143 72.8571 7.34036 72.8571 8.90375V12.1429Z" fill="white"/>
<path d="M30.3572 12.1429V8.90375C30.3572 3.995 26.3622 0 21.4535 0H14.9753C10.0665 0 6.07153 3.995 6.07153 8.90375V12.1429C6.07153 18.8396 11.5176 24.2857 18.2144 24.2857C24.9112 24.2857 30.3572 18.8396 30.3572 12.1429ZM24.2858 12.1429C24.2858 15.4913 21.5628 18.2143 18.2144 18.2143C14.866 18.2143 12.143 15.4913 12.143 12.1429V8.90375C12.143 7.34036 13.4119 6.07143 14.9753 6.07143H21.4535C23.0169 6.07143 24.2858 7.34036 24.2858 8.90375V12.1429Z" fill="white"/>
</svg>
